<svg width="336" height="196" viewBox="0 0 336 196" fill="none" xmlns="http://www.w3.org/2000/svg">
<g clip-path="url(#clip0_0_384)">
<path d="M328.755 0H7.24528C3.24382 0 0 2.64912 0 5.91698V190.083C0 193.351 3.24382 196 7.24528 196H328.755C332.756 196 336 193.351 336 190.083V5.91698C336 2.64912 332.756 0 328.755 0Z" fill="#F8E4F2"/>
<mask id="mask0_0_384" style="mask-type:alpha" maskUnits="userSpaceOnUse" x="0" y="0" width="336" height="196">
<path d="M336 0H0V196H336V0Z" fill="#FFF2E6"/>
</mask>
<g mask="url(#mask0_0_384)">
<path opacity="0.5" d="M24.4529 78.0302C57.715 78.0302 84.6793 56.0094 84.6793 28.8453C84.6793 1.68123 57.715 -20.3396 24.4529 -20.3396C-8.80927 -20.3396 -35.7736 1.68123 -35.7736 28.8453C-35.7736 56.0094 -8.80927 78.0302 24.4529 78.0302Z" stroke="#F0C4E3" stroke-width="19"/>
<path opacity="0.5" d="M323.321 154.951C356.583 154.951 383.547 132.93 383.547 105.766C383.547 78.6019 356.583 56.5811 323.321 56.5811C290.059 56.5811 263.094 78.6019 263.094 105.766C263.094 132.93 290.059 154.951 323.321 154.951Z" stroke="#F0C4E3" stroke-width="19"/>
<g filter="url(#filter0_d_0_384)">
<path d="M23.5472 39.2001C23.5472 33.8898 28.8184 29.585 35.3208 29.585H300.679C307.182 29.585 312.453 33.8898 312.453 39.2001V196H23.5472V39.2001Z" fill="white"/>
</g>
<path d="M276.226 89.1245H60.6793C53.9268 89.1245 48.4529 93.5949 48.4529 99.1094V119.079C48.4529 124.594 53.9268 129.064 60.6793 129.064H276.226C282.979 129.064 288.453 124.594 288.453 119.079V99.1094C288.453 93.5949 282.979 89.1245 276.226 89.1245Z" fill="white"/>
<path d="M119.964 109.061V113.361C119.46 113.562 118.855 113.721 118.147 113.839C117.439 113.957 116.715 114.015 115.976 114.015C114.847 114.015 113.867 113.831 113.036 113.462C112.204 113.093 111.567 112.565 111.126 111.878C110.684 111.19 110.464 110.369 110.464 109.413C110.464 108.475 110.684 107.661 111.126 106.974C111.567 106.287 112.193 105.759 113.005 105.39C113.825 105.02 114.785 104.836 115.884 104.836C116.654 104.836 117.372 104.929 118.039 105.113C118.717 105.297 119.281 105.557 119.733 105.892L119.055 107.074C118.542 106.747 118.039 106.513 117.547 106.37C117.054 106.228 116.515 106.157 115.93 106.157C114.801 106.157 113.944 106.433 113.359 106.986C112.784 107.54 112.497 108.349 112.497 109.413C112.497 110.511 112.794 111.341 113.39 111.903C113.985 112.456 114.872 112.733 116.053 112.733C116.771 112.733 117.48 112.653 118.178 112.494V110.23H115.807V109.061H119.964ZM128.866 110.809H123.509C123.549 111.488 123.755 111.991 124.124 112.318C124.504 112.636 125.064 112.795 125.803 112.795C126.655 112.795 127.445 112.569 128.174 112.116L128.728 113.198C128.358 113.441 127.902 113.638 127.358 113.789C126.824 113.931 126.28 114.002 125.726 114.002C124.453 114.002 123.452 113.709 122.723 113.122C121.994 112.536 121.63 111.731 121.63 110.708C121.63 110.062 121.79 109.489 122.108 108.986C122.425 108.483 122.872 108.093 123.447 107.816C124.022 107.531 124.673 107.389 125.402 107.389C126.47 107.389 127.311 107.674 127.927 108.244C128.553 108.805 128.866 109.581 128.866 110.57V110.809ZM125.449 108.52C124.935 108.52 124.515 108.646 124.186 108.898C123.868 109.141 123.663 109.497 123.57 109.966H127.188C127.127 109.489 126.947 109.128 126.649 108.885C126.362 108.642 125.962 108.52 125.449 108.52ZM134.946 107.389C136.804 107.389 137.733 108.261 137.733 110.004V113.902H135.808V110.079C135.808 109.577 135.69 109.212 135.454 108.986C135.218 108.751 134.854 108.634 134.361 108.634C133.776 108.634 133.303 108.789 132.945 109.099C132.585 109.401 132.406 109.803 132.406 110.306V113.902H130.497V109.35C130.497 108.679 130.455 108.08 130.373 107.552H132.175L132.313 108.596C132.58 108.21 132.939 107.912 133.391 107.703C133.853 107.494 134.371 107.389 134.946 107.389ZM146.578 110.809H141.221C141.261 111.488 141.467 111.991 141.836 112.318C142.216 112.636 142.776 112.795 143.515 112.795C144.366 112.795 145.157 112.569 145.886 112.116L146.44 113.198C146.07 113.441 145.613 113.638 145.07 113.789C144.535 113.931 143.992 114.002 143.438 114.002C142.164 114.002 141.164 113.709 140.435 113.122C139.706 112.536 139.342 111.731 139.342 110.708C139.342 110.062 139.501 109.489 139.82 108.986C140.137 108.483 140.584 108.093 141.159 107.816C141.733 107.531 142.385 107.389 143.114 107.389C144.181 107.389 145.023 107.674 145.639 108.244C146.265 108.805 146.578 109.581 146.578 110.57V110.809ZM143.161 108.52C142.647 108.52 142.226 108.646 141.898 108.898C141.579 109.141 141.375 109.497 141.282 109.966H144.9C144.839 109.489 144.658 109.128 144.361 108.885C144.073 108.642 143.673 108.52 143.161 108.52ZM152.396 107.401C152.693 107.401 152.95 107.435 153.165 107.502L153.15 108.935C152.822 108.827 152.483 108.772 152.134 108.772C151.477 108.772 150.975 108.927 150.625 109.237C150.286 109.547 150.117 109.958 150.117 110.469V113.902H148.208V109.35C148.208 108.679 148.167 108.08 148.085 107.552H149.886L150.04 108.671C150.236 108.261 150.543 107.946 150.964 107.728C151.385 107.51 151.862 107.401 152.396 107.401ZM161.523 107.552V113.902H159.629V112.883C159.394 113.235 159.055 113.512 158.613 113.713C158.172 113.906 157.669 114.002 157.104 114.002C156.427 114.002 155.826 113.869 155.303 113.6C154.779 113.332 154.374 112.951 154.086 112.456C153.799 111.961 153.655 111.387 153.655 110.733C153.655 110.079 153.799 109.501 154.086 108.998C154.384 108.487 154.795 108.093 155.318 107.816C155.842 107.531 156.437 107.389 157.104 107.389C157.669 107.389 158.172 107.489 158.613 107.691C159.055 107.884 159.394 108.156 159.629 108.508V107.552H161.523ZM157.628 112.77C158.264 112.77 158.757 112.59 159.106 112.23C159.455 111.869 159.629 111.362 159.629 110.708C159.629 110.037 159.455 109.522 159.106 109.162C158.757 108.801 158.259 108.621 157.612 108.621C156.976 108.621 156.478 108.81 156.119 109.187C155.77 109.556 155.595 110.071 155.595 110.733C155.595 111.387 155.77 111.89 156.119 112.242C156.478 112.594 156.981 112.77 157.628 112.77ZM163.619 104.648H165.528V113.902H163.619V104.648ZM175.707 114.015C174.866 114.015 174.075 113.923 173.336 113.738C172.608 113.554 171.987 113.29 171.473 112.946L172.151 111.764C172.685 112.091 173.239 112.335 173.813 112.494C174.399 112.644 175.035 112.72 175.723 112.72C176.482 112.72 177.068 112.611 177.478 112.393C177.899 112.175 178.109 111.869 178.109 111.475C178.109 111.14 177.914 110.884 177.524 110.708C177.145 110.524 176.513 110.352 175.63 110.193C174.255 109.949 173.255 109.635 172.628 109.25C172.002 108.864 171.689 108.302 171.689 107.565C171.689 107.037 171.864 106.567 172.212 106.157C172.562 105.746 173.055 105.423 173.69 105.188C174.337 104.954 175.081 104.836 175.923 104.836C176.693 104.836 177.422 104.932 178.109 105.125C178.807 105.31 179.377 105.57 179.818 105.905L179.156 107.087C178.181 106.45 177.104 106.131 175.923 106.131C175.215 106.131 174.656 106.253 174.245 106.496C173.834 106.73 173.629 107.054 173.629 107.464C173.629 107.816 173.809 108.085 174.168 108.269C174.537 108.453 175.164 108.625 176.046 108.784C176.96 108.96 177.704 109.153 178.278 109.363C178.853 109.564 179.295 109.828 179.602 110.155C179.91 110.474 180.064 110.876 180.064 111.362C180.064 111.898 179.89 112.368 179.541 112.77C179.192 113.164 178.69 113.47 178.032 113.688C177.375 113.906 176.6 114.015 175.707 114.015ZM185.293 114.002C184.482 114.002 183.778 113.869 183.183 113.6C182.588 113.332 182.131 112.954 181.813 112.468C181.495 111.974 181.336 111.395 181.336 110.733C181.336 110.071 181.5 109.489 181.829 108.986C182.167 108.483 182.639 108.093 183.245 107.816C183.861 107.531 184.569 107.389 185.37 107.389C185.924 107.389 186.457 107.46 186.971 107.602C187.494 107.745 187.91 107.942 188.218 108.193L187.679 109.3C187.35 109.082 187.002 108.918 186.632 108.81C186.263 108.692 185.899 108.634 185.539 108.634C184.841 108.634 184.297 108.814 183.907 109.174C183.517 109.526 183.322 110.037 183.322 110.708C183.322 111.379 183.512 111.89 183.892 112.242C184.282 112.594 184.831 112.77 185.539 112.77C185.899 112.77 186.263 112.712 186.632 112.594C187.002 112.477 187.35 112.309 187.679 112.091L188.218 113.198C187.889 113.449 187.464 113.646 186.94 113.789C186.417 113.931 185.868 114.002 185.293 114.002ZM189.51 107.552H191.42V113.902H189.51V107.552ZM191.527 104.673V106.219H189.387V104.673H191.527ZM200.329 110.809H194.972C195.013 111.488 195.218 111.991 195.587 112.318C195.968 112.636 196.527 112.795 197.266 112.795C198.118 112.795 198.908 112.569 199.637 112.116L200.191 113.198C199.821 113.441 199.365 113.638 198.821 113.789C198.287 113.931 197.743 114.002 197.189 114.002C195.916 114.002 194.915 113.709 194.186 113.122C193.458 112.536 193.093 111.731 193.093 110.708C193.093 110.062 193.253 109.489 193.57 108.986C193.889 108.483 194.336 108.093 194.91 107.816C195.485 107.531 196.137 107.389 196.865 107.389C197.933 107.389 198.774 107.674 199.39 108.244C200.017 108.805 200.329 109.581 200.329 110.57V110.809ZM196.911 108.52C196.399 108.52 195.978 108.646 195.649 108.898C195.331 109.141 195.125 109.497 195.033 109.966H198.651C198.59 109.489 198.41 109.128 198.112 108.885C197.825 108.642 197.425 108.52 196.911 108.52ZM206.409 107.389C208.267 107.389 209.196 108.261 209.196 110.004V113.902H207.271V110.079C207.271 109.577 207.153 109.212 206.917 108.986C206.681 108.751 206.317 108.634 205.824 108.634C205.239 108.634 204.766 108.789 204.408 109.099C204.048 109.401 203.869 109.803 203.869 110.306V113.902H201.96V109.35C201.96 108.679 201.918 108.08 201.836 107.552H203.638L203.776 108.596C204.043 108.21 204.402 107.912 204.854 107.703C205.316 107.494 205.834 107.389 206.409 107.389ZM214.762 114.002C213.951 114.002 213.248 113.869 212.653 113.6C212.058 113.332 211.6 112.954 211.282 112.468C210.965 111.974 210.805 111.395 210.805 110.733C210.805 110.071 210.969 109.489 211.298 108.986C211.637 108.483 212.108 108.093 212.714 107.816C213.33 107.531 214.038 107.389 214.839 107.389C215.393 107.389 215.927 107.46 216.44 107.602C216.964 107.745 217.379 107.942 217.687 108.193L217.148 109.3C216.82 109.082 216.471 108.918 216.101 108.81C215.732 108.692 215.368 108.634 215.008 108.634C214.31 108.634 213.767 108.814 213.376 109.174C212.986 109.526 212.791 110.037 212.791 110.708C212.791 111.379 212.981 111.89 213.361 112.242C213.751 112.594 214.3 112.77 215.008 112.77C215.368 112.77 215.732 112.712 216.101 112.594C216.471 112.477 216.82 112.309 217.148 112.091L217.687 113.198C217.359 113.449 216.933 113.646 216.409 113.789C215.886 113.931 215.337 114.002 214.762 114.002ZM225.785 110.809H220.427C220.468 111.488 220.673 111.991 221.043 112.318C221.422 112.636 221.982 112.795 222.721 112.795C223.572 112.795 224.363 112.569 225.092 112.116L225.646 113.198C225.277 113.441 224.819 113.638 224.276 113.789C223.742 113.931 223.198 114.002 222.644 114.002C221.371 114.002 220.37 113.709 219.642 113.122C218.913 112.536 218.549 111.731 218.549 110.708C218.549 110.062 218.707 109.489 219.026 108.986C219.344 108.483 219.79 108.093 220.365 107.816C220.94 107.531 221.592 107.389 222.321 107.389C223.388 107.389 224.23 107.674 224.846 108.244C225.471 108.805 225.785 109.581 225.785 110.57V110.809ZM222.367 108.52C221.853 108.52 221.432 108.646 221.104 108.898C220.786 109.141 220.581 109.497 220.488 109.966H224.107C224.045 109.489 223.865 109.128 223.568 108.885C223.28 108.642 222.879 108.52 222.367 108.52Z" fill="#1C1C50"/>
<path d="M65.5428 101.328C65.5428 99.2861 67.5702 97.6301 70.0711 97.6301H88.4191V120.558H70.0711C67.5702 120.558 65.5428 118.902 65.5428 116.86V101.328Z" fill="#8391A0"/>
<path d="M65.5428 117.161C65.5428 115.286 67.405 113.765 69.7021 113.765H88.4191V120.559H69.7021C67.405 120.559 65.5428 119.038 65.5428 117.161Z" fill="#9CA4AD"/>
<path d="M76.2503 108.056L76.267 106.993C76.2694 106.847 76.3225 106.702 76.4263 106.557C76.5302 106.412 76.6849 106.268 76.8396 106.123C77.0196 105.979 77.1998 105.834 77.4052 105.691C77.6107 105.546 77.8165 105.382 77.9969 105.216C78.1773 105.051 78.358 104.865 78.4876 104.7C78.6176 104.513 78.6974 104.285 78.701 104.055C78.7034 103.91 78.6805 103.743 78.6066 103.596C78.5582 103.45 78.4586 103.324 78.3336 103.198C78.2082 103.093 78.0574 102.987 77.9061 102.924C77.7293 102.859 77.5268 102.817 77.2982 102.814C77.0188 102.812 76.7642 102.851 76.5851 102.933C76.4061 103.015 76.2517 103.139 76.1478 103.284C76.0442 103.408 75.9655 103.574 75.9374 103.74C75.9094 103.907 75.8813 104.073 75.879 104.219L75.8754 104.448L72.9294 104.423C72.93 104.382 72.9308 104.339 72.9059 104.298C72.9073 104.214 72.8832 104.131 72.8848 104.027C72.8921 103.569 73.0257 103.153 73.2602 102.78C73.4946 102.407 73.8297 102.098 74.2654 101.851C74.7014 101.584 75.2123 101.401 75.7987 101.26C76.3851 101.119 77.0464 101.062 77.7322 101.068C78.3925 101.073 79.0264 101.141 79.5828 101.292C80.1393 101.442 80.5935 101.634 80.9959 101.888C81.3729 102.14 81.6727 102.456 81.8703 102.811C82.0679 103.167 82.1886 103.564 82.1816 104.001C82.1767 104.314 82.096 104.605 81.9654 104.833C81.809 105.082 81.6276 105.31 81.3961 105.495C81.1642 105.702 80.9327 105.887 80.6764 106.031C80.3945 106.195 80.1636 106.339 79.9327 106.483C79.7018 106.626 79.4963 106.771 79.3167 106.894C79.1108 107.059 79.032 107.225 79.0294 107.392L79.0195 108.017L76.2513 107.993L76.2503 108.056Z" fill="white"/>
<path d="M79.1651 108.784L76.4222 108.761L76.3893 110.844L79.1322 110.867L79.1651 108.784Z" fill="white"/>
<path d="M276.226 89.1245H60.6793C53.9268 89.1245 48.4529 93.5949 48.4529 99.1094V119.079C48.4529 124.594 53.9268 129.064 60.6793 129.064H276.226C282.979 129.064 288.453 124.594 288.453 119.079V99.1094C288.453 93.5949 282.979 89.1245 276.226 89.1245Z" stroke="#BDC7D2"/>
<path d="M276.226 37.3511H60.6793C53.9268 37.3511 48.4529 41.8215 48.4529 47.336V67.3058C48.4529 72.8203 53.9268 77.2907 60.6793 77.2907H276.226C282.979 77.2907 288.453 72.8203 288.453 67.3058V47.336C288.453 41.8215 282.979 37.3511 276.226 37.3511Z" fill="white"/>
<path d="M149.64 57.5014C150.276 57.6522 150.764 57.9163 151.102 58.2935C151.452 58.6707 151.626 59.1359 151.626 59.6892C151.626 60.4519 151.292 61.0513 150.625 61.4872C149.968 61.9147 149.05 62.1284 147.869 62.1284H142.896V53.176H147.715C148.844 53.176 149.732 53.3856 150.379 53.8047C151.025 54.2154 151.349 54.7855 151.349 55.5147C151.349 55.9842 151.195 56.3949 150.887 56.7469C150.59 57.0906 150.174 57.3421 149.64 57.5014ZM144.836 56.9481H147.392C148.767 56.9481 149.455 56.529 149.455 55.6908C149.455 55.2716 149.285 54.9573 148.947 54.7477C148.608 54.5382 148.09 54.4334 147.392 54.4334H144.836V56.9481ZM147.653 60.8711C148.373 60.8711 148.896 60.7663 149.224 60.5567C149.563 60.3472 149.732 60.0161 149.732 59.5634C149.732 59.1024 149.563 58.7629 149.224 58.545C148.896 58.327 148.373 58.218 147.653 58.218H144.836V60.8711H147.653ZM160.824 55.7788V62.1284H158.93V61.11C158.694 61.462 158.356 61.7387 157.914 61.9398C157.473 62.1326 156.97 62.229 156.405 62.229C155.727 62.229 155.127 62.0949 154.604 61.8267C154.08 61.5584 153.675 61.1771 153.387 60.6825C153.1 60.1879 152.956 59.6137 152.956 58.9599C152.956 58.3061 153.1 57.7277 153.387 57.2247C153.685 56.7134 154.095 56.3194 154.619 56.0428C155.142 55.7578 155.738 55.6153 156.405 55.6153C156.97 55.6153 157.473 55.7159 157.914 55.9171C158.356 56.1099 158.694 56.3823 158.93 56.7344V55.7788H160.824ZM156.928 60.9968C157.565 60.9968 158.058 60.8166 158.406 60.4561C158.756 60.0957 158.93 59.5886 158.93 58.9347C158.93 58.2641 158.756 57.7486 158.406 57.3882C158.058 57.0278 157.56 56.8475 156.913 56.8475C156.277 56.8475 155.779 57.0361 155.42 57.4133C155.071 57.7822 154.896 58.2977 154.896 58.9599C154.896 59.6137 155.071 60.1167 155.42 60.4687C155.779 60.8208 156.282 60.9968 156.928 60.9968ZM167.37 55.6153C169.227 55.6153 170.156 56.4871 170.156 58.2306V62.1284H168.232V58.3061C168.232 57.8031 168.114 57.4385 167.878 57.2122C167.641 56.9775 167.277 56.8601 166.785 56.8601C166.2 56.8601 165.728 57.0152 165.368 57.3253C165.009 57.6271 164.829 58.0294 164.829 58.5324V62.1284H162.92V57.5768C162.92 56.9062 162.879 56.3069 162.797 55.7788H164.598L164.737 56.8224C165.004 56.4368 165.363 56.1392 165.815 55.9297C166.277 55.7201 166.795 55.6153 167.37 55.6153ZM179.71 55.7788V61.9272C179.71 62.9163 179.377 63.6666 178.709 64.1779C178.042 64.6892 177.062 64.9449 175.769 64.9449C174.568 64.9449 173.511 64.7395 172.597 64.3288L172.905 63.1343C173.85 63.5367 174.789 63.7379 175.723 63.7379C177.108 63.7379 177.801 63.1763 177.801 62.053V60.7956C177.565 61.1393 177.221 61.4201 176.77 61.6381C176.318 61.8476 175.81 61.9524 175.245 61.9524C174.568 61.9524 173.962 61.8224 173.429 61.5626C172.905 61.2944 172.495 60.9214 172.197 60.4436C171.91 59.9574 171.766 59.4042 171.766 58.7839C171.766 58.1635 171.91 57.6145 172.197 57.1367C172.495 56.6506 172.905 56.2775 173.429 56.0177C173.962 55.7494 174.568 55.6153 175.245 55.6153C175.82 55.6153 176.328 55.7159 176.77 55.9171C177.221 56.1099 177.565 56.3823 177.801 56.7344V55.7788H179.71ZM175.753 60.7202C176.39 60.7202 176.887 60.5484 177.247 60.2047C177.616 59.861 177.801 59.3874 177.801 58.7839C177.801 58.1803 177.622 57.7067 177.262 57.363C176.903 57.0193 176.4 56.8475 175.753 56.8475C175.117 56.8475 174.614 57.0193 174.245 57.363C173.885 57.7067 173.706 58.1803 173.706 58.7839C173.706 59.3874 173.885 59.861 174.245 60.2047C174.614 60.5484 175.117 60.7202 175.753 60.7202ZM181.79 52.8743H183.699V62.1284H181.79V52.8743ZM193.24 55.7788V62.1284H191.346V61.11C191.111 61.462 190.772 61.7387 190.33 61.9398C189.889 62.1326 189.386 62.229 188.821 62.229C188.144 62.229 187.543 62.0949 187.02 61.8267C186.496 61.5584 186.092 61.1771 185.804 60.6825C185.516 60.1879 185.372 59.6137 185.372 58.9599C185.372 58.3061 185.516 57.7277 185.804 57.2247C186.101 56.7134 186.512 56.3194 187.035 56.0428C187.559 55.7578 188.155 55.6153 188.821 55.6153C189.386 55.6153 189.889 55.7159 190.33 55.9171C190.772 56.1099 191.111 56.3823 191.346 56.7344V55.7788H193.24ZM189.345 60.9968C189.981 60.9968 190.474 60.8166 190.823 60.4561C191.172 60.0957 191.346 59.5886 191.346 58.9347C191.346 58.2641 191.172 57.7486 190.823 57.3882C190.474 57.0278 189.976 56.8475 189.329 56.8475C188.693 56.8475 188.195 57.0361 187.836 57.4133C187.487 57.7822 187.312 58.2977 187.312 58.9599C187.312 59.6137 187.487 60.1167 187.836 60.4687C188.195 60.8208 188.698 60.9968 189.345 60.9968Z" fill="#1C1C50"/>
<path d="M65.5432 49.5548C65.5432 47.5124 67.5706 45.8567 70.0715 45.8567H88.4196V68.785H70.0715C67.5706 68.785 65.5432 67.1293 65.5432 65.0869V49.5548Z" fill="#8391A0"/>
<path d="M65.5432 65.3883C65.5432 63.5123 67.4054 61.9915 69.7026 61.9915H88.4196V68.785H69.7026C67.4054 68.785 65.5432 67.2642 65.5432 65.3883Z" fill="#9CA4AD"/>
<path d="M76.2508 56.2822L76.2675 55.2197C76.2698 55.0739 76.3229 54.9285 76.4268 54.7835C76.5307 54.6386 76.6854 54.494 76.8401 54.3495C77.0201 54.2052 77.2003 54.0609 77.4057 53.9168C77.6112 53.7728 77.817 53.6078 77.9973 53.4427C78.1777 53.2775 78.3585 53.0916 78.4881 52.926C78.6181 52.7396 78.6979 52.511 78.7015 52.2819C78.7038 52.1361 78.681 51.9693 78.6071 51.8228C78.5587 51.6765 78.459 51.5506 78.3341 51.4246C78.2087 51.3194 78.0579 51.2139 77.9066 51.1501C77.7298 51.0861 77.5273 51.0427 77.2987 51.0408C77.0193 51.0384 76.7647 51.0779 76.5856 51.1597C76.4065 51.2416 76.2521 51.3652 76.1482 51.5102C76.0447 51.6343 75.9659 51.8003 75.9379 51.9668C75.9099 52.1332 75.8818 52.2996 75.8795 52.4454L75.8759 52.6746L72.9299 52.6496C72.9305 52.6079 72.9312 52.5662 72.9064 52.5244C72.9078 52.441 72.8837 52.3575 72.8853 52.2533C72.8926 51.795 73.0262 51.3795 73.2606 51.0064C73.4951 50.6334 73.8302 50.3238 74.2659 50.0775C74.7019 49.8103 75.2128 49.6271 75.7992 49.4863C76.3856 49.3454 77.0469 49.2885 77.7326 49.2944C78.3929 49.3 79.0269 49.3679 79.5833 49.5185C80.1398 49.669 80.594 49.8604 80.9963 50.1139C81.3734 50.367 81.6731 50.6821 81.8708 51.0379C82.0683 51.3938 82.1891 51.7907 82.1821 52.2282C82.1772 52.5406 82.0964 52.8317 81.9658 53.0597C81.8095 53.3084 81.6281 53.536 81.3965 53.7216C81.1647 53.9279 80.9332 54.1135 80.6769 54.2571C80.395 54.4214 80.164 54.5653 79.9332 54.7092C79.7023 54.8531 79.4968 54.9971 79.3171 55.1207C79.1113 55.2856 79.0325 55.4516 79.0299 55.6182L79.02 56.2432L76.2518 56.2197L76.2508 56.2822Z" fill="white"/>
<path d="M79.1654 57.0109L76.4226 56.9875L76.3898 59.0708L79.1326 59.0941L79.1654 57.0109Z" fill="white"/>
<path d="M276.226 37.3511H60.6793C53.9268 37.3511 48.4529 41.8215 48.4529 47.336V67.3058C48.4529 72.8203 53.9268 77.2907 60.6793 77.2907H276.226C282.979 77.2907 288.453 72.8203 288.453 67.3058V47.336C288.453 41.8215 282.979 37.3511 276.226 37.3511Z" stroke="#BDC7D2"/>
<path d="M276.226 141.195H60.6793C53.6767 141.195 48 145.831 48 151.55V171.519C48 177.238 53.6767 181.874 60.6793 181.874H276.226C283.229 181.874 288.906 177.238 288.906 171.519V151.55C288.906 145.831 283.229 141.195 276.226 141.195Z" fill="#0DE0C0"/>
<path d="M137.115 167.201C135.974 167.201 134.974 167.002 134.116 166.602C133.268 166.203 132.616 165.639 132.159 164.911C131.703 164.175 131.475 163.314 131.475 162.329C131.475 161.352 131.703 160.5 132.159 159.773C132.616 159.036 133.268 158.472 134.116 158.082C134.974 157.682 135.974 157.483 137.115 157.483C137.898 157.483 138.631 157.585 139.316 157.789C140.011 157.984 140.587 158.259 141.044 158.614L140.359 159.866C139.838 159.52 139.316 159.271 138.794 159.12C138.283 158.96 137.735 158.881 137.148 158.881C136.028 158.881 135.159 159.178 134.539 159.773C133.931 160.367 133.627 161.219 133.627 162.329C133.627 163.447 133.931 164.308 134.539 164.911C135.148 165.506 136.018 165.803 137.148 165.803C137.735 165.803 138.283 165.728 138.794 165.577C139.316 165.417 139.838 165.164 140.359 164.818L141.044 166.07C140.587 166.425 140.011 166.704 139.316 166.908C138.631 167.104 137.898 167.201 137.115 167.201ZM146.437 167.188C145.6 167.188 144.861 167.046 144.22 166.762C143.59 166.478 143.101 166.074 142.753 165.55C142.416 165.018 142.248 164.397 142.248 163.687C142.248 162.977 142.416 162.36 142.753 161.836C143.101 161.304 143.59 160.895 144.22 160.611C144.861 160.327 145.6 160.185 146.437 160.185C147.263 160.185 147.991 160.327 148.622 160.611C149.252 160.895 149.736 161.304 150.072 161.836C150.42 162.36 150.594 162.977 150.594 163.687C150.594 164.397 150.42 165.018 150.072 165.55C149.736 166.074 149.252 166.478 148.622 166.762C147.991 167.046 147.263 167.188 146.437 167.188ZM146.421 165.883C147.116 165.883 147.643 165.701 148.002 165.337C148.372 164.965 148.556 164.414 148.556 163.687C148.556 162.968 148.372 162.422 148.002 162.049C147.633 161.667 147.111 161.477 146.437 161.477C145.752 161.477 145.225 161.667 144.856 162.049C144.486 162.422 144.302 162.968 144.302 163.687C144.302 164.414 144.481 164.965 144.84 165.337C145.209 165.701 145.736 165.883 146.421 165.883ZM162.067 160.185C163.002 160.185 163.697 160.416 164.154 160.878C164.61 161.33 164.838 162.022 164.838 162.954V167.081H162.801V163.008C162.801 162.475 162.692 162.093 162.475 161.863C162.268 161.623 161.92 161.503 161.431 161.503C160.866 161.503 160.421 161.667 160.095 161.996C159.779 162.315 159.622 162.759 159.622 163.327V167.081H157.584V163.008C157.584 162.484 157.47 162.102 157.242 161.863C157.024 161.623 156.677 161.503 156.198 161.503C155.633 161.503 155.188 161.667 154.862 161.996C154.536 162.315 154.373 162.759 154.373 163.327V167.081H152.351V162.262C152.351 161.552 152.308 160.917 152.221 160.358H154.128L154.275 161.423C154.514 161.024 154.856 160.718 155.302 160.505C155.758 160.292 156.28 160.185 156.867 160.185C158.127 160.185 158.948 160.611 159.328 161.463C159.589 161.064 159.959 160.753 160.437 160.531C160.926 160.301 161.469 160.185 162.067 160.185ZM171.709 160.185C172.415 160.185 173.04 160.336 173.583 160.638C174.138 160.931 174.567 161.348 174.871 161.889C175.186 162.422 175.344 163.034 175.344 163.727C175.344 164.419 175.192 165.027 174.888 165.55C174.583 166.074 174.154 166.478 173.6 166.762C173.056 167.046 172.426 167.188 171.709 167.188C171.111 167.188 170.578 167.086 170.111 166.882C169.644 166.669 169.285 166.376 169.035 166.003V169.957H167.014V162.262C167.014 161.552 166.97 160.917 166.883 160.358H168.791L168.954 161.517C169.171 161.099 169.524 160.775 170.013 160.545C170.502 160.305 171.067 160.185 171.709 160.185ZM171.154 165.883C171.839 165.883 172.366 165.697 172.736 165.324C173.105 164.951 173.29 164.419 173.29 163.727C173.29 163.025 173.105 162.48 172.736 162.089C172.366 161.69 171.845 161.49 171.171 161.49C170.475 161.49 169.943 161.681 169.573 162.062C169.204 162.444 169.019 162.99 169.019 163.7C169.019 164.401 169.204 164.943 169.573 165.324C169.943 165.697 170.47 165.883 171.154 165.883ZM184.622 160.358V167.081H182.633V166.043C182.372 166.416 182.024 166.7 181.589 166.895C181.155 167.09 180.655 167.188 180.09 167.188C178.079 167.188 177.074 166.265 177.074 164.419V160.358H179.095V164.432C179.095 164.92 179.215 165.28 179.454 165.511C179.704 165.741 180.084 165.857 180.595 165.857C181.193 165.857 181.671 165.697 182.03 165.377C182.388 165.058 182.568 164.632 182.568 164.099V160.358H184.622ZM189.425 161.61V164.619C189.425 165.408 189.876 165.803 190.778 165.803C191.028 165.803 191.3 165.768 191.593 165.697V167.015C191.235 167.121 190.8 167.175 190.289 167.175C189.355 167.175 188.637 166.962 188.137 166.536C187.637 166.11 187.387 165.497 187.387 164.698V161.61H185.806V160.358H187.387V158.721L189.425 158.162V160.358H191.61V161.61H189.425ZM200.216 163.806H194.543C194.587 164.525 194.804 165.058 195.195 165.404C195.597 165.741 196.19 165.91 196.972 165.91C197.874 165.91 198.711 165.67 199.483 165.191L200.069 166.336C199.678 166.593 199.195 166.802 198.619 166.962C198.053 167.113 197.477 167.188 196.891 167.188C195.543 167.188 194.483 166.877 193.712 166.256C192.94 165.635 192.554 164.783 192.554 163.7C192.554 163.017 192.723 162.409 193.06 161.876C193.397 161.344 193.869 160.931 194.478 160.638C195.087 160.336 195.777 160.185 196.548 160.185C197.679 160.185 198.57 160.487 199.222 161.091C199.885 161.685 200.216 162.506 200.216 163.553V163.806ZM196.597 161.383C196.054 161.383 195.608 161.517 195.26 161.783C194.924 162.04 194.706 162.417 194.608 162.914H198.439C198.374 162.409 198.184 162.027 197.869 161.77C197.564 161.512 197.141 161.383 196.597 161.383ZM206.376 160.199C206.691 160.199 206.962 160.234 207.191 160.305L207.174 161.823C206.827 161.707 206.468 161.65 206.098 161.65C205.403 161.65 204.87 161.814 204.501 162.142C204.142 162.471 203.963 162.906 203.963 163.447V167.081H201.941V162.262C201.941 161.552 201.898 160.917 201.811 160.358H203.718L203.881 161.543C204.088 161.108 204.414 160.775 204.859 160.545C205.305 160.314 205.81 160.199 206.376 160.199Z" fill="white"/>
<path d="M65.5428 153.102C65.5428 151.06 67.5702 149.404 70.0711 149.404H88.4191V172.332H70.0711C67.5702 172.332 65.5428 170.676 65.5428 168.634V153.102Z" fill="white"/>
<path d="M65.5428 168.935C65.5428 167.059 67.405 165.539 69.7021 165.539H88.4191V172.332H69.7021C67.405 172.332 65.5428 170.811 65.5428 168.935Z" fill="url(#paint0_linear_0_384)"/>
<path d="M76.2503 159.829L76.267 158.767C76.2694 158.621 76.3225 158.475 76.4263 158.33C76.5302 158.185 76.6849 158.041 76.8396 157.897C77.0196 157.753 77.1998 157.608 77.4052 157.464C77.6107 157.32 77.8165 157.155 77.9969 156.989C78.1773 156.824 78.358 156.639 78.4876 156.473C78.6176 156.287 78.6974 156.058 78.701 155.829C78.7034 155.683 78.6805 155.516 78.6066 155.37C78.5582 155.224 78.4586 155.097 78.3336 154.972C78.2082 154.867 78.0574 154.761 77.9061 154.697C77.7293 154.633 77.5268 154.59 77.2982 154.588C77.0188 154.586 76.7642 154.625 76.5851 154.707C76.4061 154.788 76.2517 154.912 76.1478 155.057C76.0442 155.182 75.9655 155.347 75.9374 155.514C75.9094 155.68 75.8813 155.847 75.879 155.992L75.8754 156.222L72.9294 156.196C72.93 156.155 72.9308 156.113 72.9059 156.071C72.9073 155.988 72.8832 155.904 72.8848 155.8C72.8921 155.342 73.0257 154.926 73.2602 154.554C73.4946 154.18 73.8297 153.871 74.2654 153.625C74.7014 153.357 75.2123 153.174 75.7987 153.033C76.3851 152.893 77.0464 152.836 77.7322 152.841C78.3925 152.847 79.0264 152.915 79.5828 153.066C80.1393 153.216 80.5935 153.407 80.9959 153.661C81.3729 153.914 81.6727 154.229 81.8703 154.585C82.0679 154.941 82.1886 155.338 82.1816 155.775C82.1767 156.088 82.096 156.378 81.9654 156.607C81.809 156.855 81.6276 157.083 81.3961 157.269C81.1642 157.475 80.9327 157.66 80.6764 157.804C80.3945 157.969 80.1636 158.112 79.9327 158.256C79.7018 158.4 79.4963 158.544 79.3167 158.667C79.1108 158.832 79.032 158.999 79.0294 159.165L79.0195 159.79L76.2513 159.767L76.2503 159.829Z" fill="#1C1C50"/>
<path d="M79.1651 160.558L76.4222 160.534L76.3893 162.618L79.1322 162.641L79.1651 160.558Z" fill="#1C1C50"/>
<g opacity="0.3">
<path opacity="0.3" d="M263.717 170.648C258.614 171.669 253.532 169.06 252.314 164.999C251.064 160.832 254.258 156.682 259.231 155.688C264.203 154.693 269.415 157.275 270.633 161.336C271.883 165.503 268.82 169.627 263.717 170.648ZM259.711 157.29C255.655 158.102 253.185 161.427 254.178 164.74C255.172 168.053 259.243 170.07 263.3 169.259C267.356 168.448 269.827 165.122 268.834 161.809C267.709 158.523 263.767 156.479 259.711 157.29Z" fill="#12E1FF"/>
<path opacity="0.3" d="M264.71 173.961C257.382 175.426 250.053 171.795 248.258 165.811C246.464 159.827 250.91 153.841 258.237 152.375C265.565 150.91 272.895 154.541 274.69 160.525C276.484 166.509 272.038 172.495 264.71 173.961ZM258.878 154.512C252.99 155.69 249.334 160.612 250.776 165.42C252.218 170.229 258.245 173.215 264.133 172.037C270.022 170.86 273.677 165.937 272.235 161.129C270.63 156.239 264.766 153.334 258.878 154.512Z" fill="#12E1FF"/>
</g>
<path d="M286.978 215.116C286.978 215.116 281.813 209.027 280.093 207.932C278.373 206.836 275.717 205.094 274.563 204.34C272.952 203.299 267.063 197.582 266.716 197.046C264.291 193.288 260.447 189.132 259.49 188.414C257.814 187.159 254.713 186.719 254.873 185.702C255.031 184.685 258.845 182.861 262.135 184.552C265.512 186.225 269.833 191.043 269.833 191.043C269.833 191.043 269.151 188.149 268.419 186.326C267.686 184.503 263.932 176.313 263.133 174.579C262.422 172.827 259.512 165.908 259.279 164.819C259.045 163.73 258.248 161.692 260.46 161.023C262.496 160.388 263.644 162.052 264.552 163.84C265.459 165.629 267.743 171.081 268.867 173.281C269.969 175.409 271.889 179.646 272.759 180.381C273.629 181.117 275.049 181.211 275.049 181.211C275.049 181.211 274.866 178.748 274.807 177.623C274.745 177.106 274.561 174.945 277.12 174.509C279.505 174.108 280.759 176.433 280.759 176.433C280.759 176.433 281.397 175.775 282.49 175.708C283.67 175.623 284.454 176.072 285.147 177.146C285.364 177.558 285.86 178.594 285.86 178.594C285.86 178.594 286.519 178.009 287.546 178.03C288.682 178.106 289.397 179.251 289.852 179.842C290.22 180.45 293.099 185.102 293.701 186.8C294.303 188.497 295.452 197.587 296.034 198.91C296.617 200.233 306.999 211.036 306.999 211.036L286.957 215.044L286.978 215.116Z" fill="#FFBD95"/>
<path d="M260.548 161.005C261.555 160.652 262.296 160.958 262.796 161.389C263.275 161.747 264.112 164.231 263.957 164.641C263.802 165.051 261.458 165.899 260.935 165.7C260.215 165.465 259.376 163.284 259.292 162.695C259.099 162.052 259.365 161.393 260.548 161.005Z" fill="#FFC8A7"/>
<path d="M263.616 185.468C263.616 185.468 266.336 187.424 268.878 190.022C269.269 190.398 269.833 191.043 269.833 191.043C269.833 191.043 269.602 193.363 269.813 194.38C269.938 195.416 271.085 197.384 271.085 197.384C271.085 197.384 269.104 196.038 268.681 193.698C268.342 191.948 268.239 190.983 267.958 190.357C267.335 188.588 263.616 185.468 263.616 185.468Z" fill="#F9A983"/>
<path d="M280.956 176.469C280.956 176.469 281.849 180.685 282.369 181.49C282.909 182.367 283.54 182.923 283.978 182.835C284.59 182.713 284.355 181.926 283.771 180.906C283.099 179.904 280.956 176.469 280.956 176.469Z" fill="#F9A983"/>
<path d="M286.056 178.631C286.056 178.631 286.892 181.418 287.412 182.224C287.932 183.029 288.344 183.477 288.803 183.461C289.263 183.445 289.309 182.981 288.941 182.372C288.314 181.21 286.056 178.631 286.056 178.631Z" fill="#F9A983"/>
<path d="M272.586 180.113C272.586 180.113 273.061 181.079 273.954 181.582C274.847 182.086 275.285 181.998 275.285 181.998L275.136 181.194C275.136 181.194 274.459 181.103 273.848 180.921C273.041 180.704 272.586 180.113 272.586 180.113Z" fill="#F9A983"/>
<path d="M260.826 165.646C261.349 165.845 263.626 165.086 263.87 164.658C263.563 164.568 262.821 164.565 262.055 164.795C261.222 165.113 260.958 165.468 260.826 165.646Z" fill="#FFD3B9"/>
<path d="M284.943 208.022C282.418 206.406 278.949 205.357 275.746 203.649C272.632 201.923 268.329 197.783 267.636 196.71C265.274 193.167 261.842 189.762 260.775 188.991C258.555 187.465 260.703 186.581 258.182 187.767C258.618 187.983 259.075 188.27 259.511 188.486C260.468 189.204 264.312 193.36 266.738 197.117C267.084 197.654 272.973 203.37 274.584 204.412C275.737 205.166 278.394 206.907 280.114 208.003C281.834 209.099 286.999 215.187 286.999 215.187L290.85 214.417C289.377 212.287 286.685 209.189 284.943 208.022Z" fill="#F9A983"/>
<path d="M259.033 188.128C259.207 188.092 259.694 187.238 259.563 187.112C259.52 186.969 256.971 185.585 256.053 185.617C255.135 185.649 254.478 185.932 254.542 186.146C254.607 186.361 258.77 188.18 259.033 188.128Z" fill="#FFC8A7"/>
<path d="M293.898 186.836C293.275 185.067 290.504 180.469 290.049 179.879C289.681 179.27 288.879 178.143 287.743 178.066C286.606 177.991 286.056 178.631 286.056 178.631C286.056 178.631 285.56 177.594 285.344 177.183C284.672 176.18 283.867 175.66 282.686 175.745C281.592 175.811 280.955 176.47 280.955 176.47C280.955 176.47 280.76 176.129 280.348 175.682C278.044 180.992 277.506 186.932 279.285 192.865C282.007 201.942 289.505 209.003 298.968 212.718L307.108 211.09C307.108 211.09 296.813 200.269 296.143 198.964C295.56 197.641 294.521 188.605 293.898 186.836Z" fill="#FFC6A3"/>
</g>
</g>
<defs>
<filter id="filter0_d_0_384" x="-0.45282" y="5.58496" width="336.906" height="214.415" filterUnits="userSpaceOnUse" color-interpolation-filters="sRGB">
<feFlood flood-opacity="0" result="BackgroundImageFix"/>
<feColorMatrix in="SourceAlpha" type="matrix" values="0 0 0 0 0 0 0 0 0 0 0 0 0 0 0 0 0 0 127 0" result="hardAlpha"/>
<feOffset/>
<feGaussianBlur stdDeviation="12"/>
<feColorMatrix type="matrix" values="0 0 0 0 0.941176 0 0 0 0 0.768627 0 0 0 0 0.890196 0 0 0 0.64 0"/>
<feBlend mode="normal" in2="BackgroundImageFix" result="effect1_dropShadow_0_384"/>
<feBlend mode="normal" in="SourceGraphic" in2="effect1_dropShadow_0_384" result="shape"/>
</filter>
<linearGradient id="paint0_linear_0_384" x1="77.0267" y1="172.792" x2="77.0916" y2="164.556" gradientUnits="userSpaceOnUse">
<stop offset="0.0354" stop-color="#C9F5FE"/>
<stop offset="1" stop-color="#F3FDFE"/>
</linearGradient>
<clipPath id="clip0_0_384">
<rect width="336" height="196" fill="white"/>
</clipPath>
</defs>
</svg>
