<svg width="336" height="194" viewBox="0 0 336 194" fill="none" xmlns="http://www.w3.org/2000/svg">
<g clip-path="url(#clip0_0_282)">
<path d="M328.755 0H7.24528C3.24382 0 0 2.62209 0 5.8566V188.143C0 191.378 3.24382 194 7.24528 194H328.755C332.756 194 336 191.378 336 188.143V5.8566C336 2.62209 332.756 0 328.755 0Z" fill="#E4F9F4"/>
<mask id="mask0_0_282" style="mask-type:alpha" maskUnits="userSpaceOnUse" x="0" y="0" width="336" height="194">
<path d="M336 0H0V194H336V0Z" fill="#FFF2E6"/>
</mask>
<g mask="url(#mask0_0_282)">
<path opacity="0.5" d="M24.4528 77.234C57.715 77.234 84.6792 55.4378 84.6792 28.5509C84.6792 1.66405 57.715 -20.1321 24.4528 -20.1321C-8.80931 -20.1321 -35.7736 1.66405 -35.7736 28.5509C-35.7736 55.4378 -8.80931 77.234 24.4528 77.234Z" stroke="#C7EFE4" stroke-width="19"/>
<path opacity="0.5" d="M323.321 153.37C356.583 153.37 383.547 131.574 383.547 104.687C383.547 77.7998 356.583 56.0037 323.321 56.0037C290.059 56.0037 263.094 77.7998 263.094 104.687C263.094 131.574 290.059 153.37 323.321 153.37Z" stroke="#C7EFE4" stroke-width="19"/>
<g filter="url(#filter0_d_0_282)">
<path d="M23.5472 38.7999C23.5472 33.5439 28.8184 29.283 35.3207 29.283H300.679C307.182 29.283 312.453 33.5439 312.453 38.7999V194H23.5472V38.7999Z" fill="white"/>
</g>
<path d="M276.226 61.8604H60.6792C53.9268 61.8604 48.4528 66.2851 48.4528 71.7434V91.5094C48.4528 96.9677 53.9268 101.392 60.6792 101.392H276.226C282.979 101.392 288.453 96.9677 288.453 91.5094V71.7434C288.453 66.2851 282.979 61.8604 276.226 61.8604Z" fill="white"/>
<path d="M138.247 82.4023H142.882V83.6469H138.247V82.4023ZM149.223 82.4023H153.857V83.6469H149.223V82.4023ZM160.199 82.4023H164.833V83.6469H160.199V82.4023ZM171.175 82.4023H175.81V83.6469H171.175V82.4023ZM182.151 82.4023H186.785V83.6469H182.151V82.4023ZM193.127 82.4023H197.761V83.6469H193.127V82.4023Z" fill="#1C1C50"/>
<path d="M276.226 61.8604H60.6792C53.9268 61.8604 48.4528 66.2851 48.4528 71.7434V91.5094C48.4528 96.9677 53.9268 101.392 60.6792 101.392H276.226C282.979 101.392 288.453 96.9677 288.453 91.5094V71.7434C288.453 66.2851 282.979 61.8604 276.226 61.8604Z" stroke="#BDC7D2"/>
<path d="M276.226 119.694H60.6792C53.9268 119.694 48.4528 124.119 48.4528 129.577V149.343C48.4528 154.802 53.9268 159.226 60.6792 159.226H276.226C282.979 159.226 288.453 154.802 288.453 149.343V129.577C288.453 124.119 282.979 119.694 276.226 119.694Z" fill="white"/>
<path d="M158.032 135.569L152.865 144.951H151.153L145.985 135.569H148.17L152.033 142.816L155.897 135.569H158.032ZM165.24 141.709H159.566C159.61 142.421 159.827 142.948 160.219 143.291C160.621 143.624 161.213 143.791 161.995 143.791C162.898 143.791 163.734 143.554 164.506 143.08L165.093 144.213C164.702 144.468 164.218 144.674 163.642 144.832C163.077 144.982 162.501 145.056 161.914 145.056C160.566 145.056 159.507 144.749 158.735 144.134C157.963 143.519 157.578 142.676 157.578 141.604C157.578 140.927 157.746 140.326 158.083 139.799C158.42 139.272 158.893 138.863 159.501 138.573C160.11 138.274 160.8 138.125 161.572 138.125C162.702 138.125 163.593 138.424 164.245 139.021C164.908 139.61 165.24 140.422 165.24 141.459V141.709ZM161.621 139.311C161.077 139.311 160.632 139.443 160.284 139.706C159.947 139.961 159.73 140.334 159.632 140.826H163.463C163.397 140.326 163.207 139.948 162.892 139.693C162.588 139.438 162.164 139.311 161.621 139.311ZM171.4 138.138C171.715 138.138 171.987 138.173 172.215 138.244L172.199 139.746C171.851 139.632 171.492 139.575 171.123 139.575C170.427 139.575 169.895 139.737 169.525 140.062C169.167 140.387 168.987 140.818 168.987 141.354V144.951H166.966V140.181C166.966 139.478 166.922 138.85 166.835 138.296H168.743L168.906 139.469C169.112 139.039 169.438 138.709 169.884 138.481C170.329 138.252 170.835 138.138 171.4 138.138ZM173.35 138.296H175.371V144.951H173.35V138.296ZM175.485 135.279V136.9H173.219V135.279H175.485ZM181.496 136.557C180.616 136.557 180.176 136.948 180.176 137.73V138.296H182.018V139.535H180.176V144.951H178.138V139.535H176.573V138.296H178.138V137.651C178.138 136.86 178.382 136.254 178.872 135.832C179.371 135.402 180.083 135.187 181.007 135.187C181.518 135.187 181.947 135.239 182.295 135.345V136.649C181.991 136.588 181.724 136.557 181.496 136.557ZM191.728 138.296L187.897 145.399C187.463 146.225 186.908 146.827 186.235 147.204C185.561 147.582 184.729 147.832 183.74 147.955L183.284 146.69C184.056 146.55 184.632 146.37 185.012 146.15C185.403 145.939 185.718 145.623 185.957 145.201L186.218 144.714L182.795 138.296H184.93L187.294 143.08L189.707 138.296H191.728Z" fill="url(#paint0_linear_0_282)"/>
<path d="M276.226 119.694H60.6792C53.9268 119.694 48.4528 124.119 48.4528 129.577V149.343C48.4528 154.802 53.9268 159.226 60.6792 159.226H276.226C282.979 159.226 288.453 154.802 288.453 149.343V129.577C288.453 124.119 282.979 119.694 276.226 119.694Z" stroke="url(#paint1_linear_0_282)"/>
<g opacity="0.3">
<path opacity="0.3" d="M259.642 148.287C252.856 149.63 246.099 146.197 244.479 140.853C242.818 135.367 247.064 129.905 253.676 128.596C260.288 127.287 267.22 130.686 268.839 136.031C270.501 141.515 266.428 146.944 259.642 148.287ZM254.316 130.706C248.922 131.774 245.637 136.151 246.958 140.511C248.279 144.871 253.694 147.526 259.088 146.458C264.482 145.391 267.767 141.013 266.445 136.654C264.95 132.328 259.709 129.638 254.316 130.706Z" fill="#12E1FF"/>
<path opacity="0.3" d="M260.962 152.647C251.218 154.575 241.472 149.796 239.085 141.92C236.699 134.044 242.611 126.165 252.355 124.236C262.099 122.307 271.846 127.086 274.232 134.962C276.619 142.839 270.706 150.718 260.962 152.647ZM253.207 127.049C245.378 128.599 240.516 135.077 242.434 141.407C244.352 147.736 252.366 151.665 260.195 150.115C268.026 148.565 272.886 142.087 270.969 135.757C268.835 129.323 261.037 125.499 253.207 127.049Z" fill="#12E1FF"/>
</g>
<path d="M290.573 206.814C290.573 206.814 283.704 198.801 281.417 197.359C279.13 195.917 275.598 193.624 274.064 192.632C271.922 191.261 264.091 183.737 263.63 183.03C260.405 178.085 255.293 172.615 254.021 171.671C251.793 170.018 247.669 169.438 247.88 168.1C248.092 166.762 253.163 164.362 257.538 166.587C262.029 168.789 267.775 175.131 267.775 175.131C267.775 175.131 266.867 171.322 265.894 168.922C264.919 166.521 259.927 155.744 258.865 153.461C257.92 151.155 254.051 142.049 253.74 140.615C253.428 139.181 252.37 136.499 255.309 135.618C258.017 134.782 259.544 136.973 260.751 139.327C261.958 141.681 264.995 148.857 266.49 151.752C267.955 154.553 270.508 160.13 271.665 161.098C272.821 162.066 274.709 162.19 274.709 162.19C274.709 162.19 274.468 158.948 274.389 157.468C274.306 156.786 274.061 153.943 277.464 153.369C280.635 152.84 282.303 155.901 282.303 155.901C282.303 155.901 283.151 155.035 284.605 154.947C286.174 154.835 287.217 155.427 288.139 156.84C288.426 157.381 289.086 158.746 289.086 158.746C289.086 158.746 289.963 157.974 291.328 158.003C292.839 158.103 293.789 159.61 294.395 160.387C294.884 161.188 298.712 167.311 299.513 169.546C300.313 171.78 301.84 183.743 302.615 185.484C303.389 187.225 317.196 201.444 317.196 201.444L290.545 206.72L290.573 206.814Z" fill="#FFBD95"/>
<path d="M255.426 135.594C256.766 135.13 257.752 135.533 258.417 136.099C259.053 136.572 260.167 139.841 259.961 140.38C259.753 140.92 256.638 142.036 255.941 141.774C254.984 141.465 253.868 138.595 253.757 137.82C253.5 136.973 253.854 136.105 255.426 135.594Z" fill="#FFC8A7"/>
<path d="M259.507 167.793C259.507 167.793 263.124 170.367 266.504 173.787C267.024 174.282 267.775 175.131 267.775 175.131C267.775 175.131 267.466 178.184 267.749 179.523C267.914 180.886 269.439 183.476 269.439 183.476C269.439 183.476 266.806 181.704 266.242 178.625C265.791 176.321 265.654 175.052 265.281 174.228C264.452 171.899 259.507 167.793 259.507 167.793Z" fill="#F9A983"/>
<path d="M282.564 155.949C282.564 155.949 283.752 161.497 284.443 162.557C285.163 163.711 286.001 164.443 286.583 164.328C287.398 164.167 287.084 163.131 286.307 161.789C285.414 160.47 282.564 155.949 282.564 155.949Z" fill="#F9A983"/>
<path d="M289.347 158.794C289.347 158.794 290.459 162.463 291.15 163.523C291.841 164.583 292.39 165.172 293 165.151C293.611 165.13 293.672 164.519 293.183 163.718C292.349 162.188 289.347 158.794 289.347 158.794Z" fill="#F9A983"/>
<path d="M271.435 160.745C271.435 160.745 272.067 162.015 273.254 162.678C274.441 163.341 275.024 163.225 275.024 163.225L274.826 162.167C274.826 162.167 273.926 162.046 273.114 161.808C272.04 161.522 271.435 160.745 271.435 160.745Z" fill="#F9A983"/>
<path d="M255.797 141.703C256.492 141.965 259.521 140.966 259.844 140.404C259.437 140.285 258.449 140.281 257.43 140.583C256.324 141.001 255.972 141.469 255.797 141.703Z" fill="#FFD3B9"/>
<path d="M287.868 197.478C284.509 195.351 279.897 193.97 275.638 191.722C271.496 189.451 265.774 184.002 264.853 182.589C261.713 177.926 257.148 173.445 255.73 172.429C252.778 170.421 255.633 169.257 252.282 170.819C252.86 171.103 253.469 171.481 254.049 171.765C255.321 172.71 260.433 178.179 263.658 183.125C264.119 183.832 271.95 191.355 274.092 192.726C275.626 193.719 279.158 196.011 281.445 197.453C283.732 198.895 290.601 206.908 290.601 206.908L295.722 205.895C293.763 203.092 290.184 199.014 287.868 197.478Z" fill="#F9A983"/>
<path d="M253.412 171.292C253.645 171.246 254.291 170.122 254.117 169.956C254.06 169.768 250.671 167.946 249.451 167.989C248.23 168.031 247.356 168.403 247.441 168.685C247.527 168.967 253.063 171.362 253.412 171.292Z" fill="#FFC8A7"/>
<path d="M299.774 169.593C298.945 167.265 295.262 161.213 294.656 160.436C294.167 159.635 293.1 158.151 291.589 158.052C290.079 157.951 289.348 158.795 289.348 158.795C289.348 158.795 288.687 157.429 288.399 156.887C287.506 155.569 286.436 154.884 284.866 154.995C283.412 155.083 282.564 155.949 282.564 155.949C282.564 155.949 282.305 155.502 281.756 154.912C278.693 161.901 277.978 169.72 280.344 177.528C283.963 189.476 293.934 198.77 306.517 203.658L317.341 201.516C317.341 201.516 303.651 187.274 302.76 185.556C301.985 183.814 300.603 171.922 299.774 169.593Z" fill="#FFC6A3"/>
</g>
</g>
<defs>
<filter id="filter0_d_0_282" x="-0.452835" y="5.28296" width="336.906" height="212.717" filterUnits="userSpaceOnUse" color-interpolation-filters="sRGB">
<feFlood flood-opacity="0" result="BackgroundImageFix"/>
<feColorMatrix in="SourceAlpha" type="matrix" values="0 0 0 0 0 0 0 0 0 0 0 0 0 0 0 0 0 0 127 0" result="hardAlpha"/>
<feOffset/>
<feGaussianBlur stdDeviation="12"/>
<feColorMatrix type="matrix" values="0 0 0 0 0.771294 0 0 0 0 0.946353 0 0 0 0 0.898212 0 0 0 1 0"/>
<feBlend mode="normal" in2="BackgroundImageFix" result="effect1_dropShadow_0_282"/>
<feBlend mode="normal" in="SourceGraphic" in2="effect1_dropShadow_0_282" result="shape"/>
</filter>
<linearGradient id="paint0_linear_0_282" x1="168.906" y1="131.774" x2="168.906" y2="148.611" gradientUnits="userSpaceOnUse">
<stop stop-color="#41FFFF"/>
<stop offset="1" stop-color="#12E1FF"/>
</linearGradient>
<linearGradient id="paint1_linear_0_282" x1="168.453" y1="119.328" x2="168.453" y2="159.592" gradientUnits="userSpaceOnUse">
<stop stop-color="#41FFFF"/>
<stop offset="1" stop-color="#12E1FF"/>
</linearGradient>
<clipPath id="clip0_0_282">
<rect width="336" height="194" fill="white"/>
</clipPath>
</defs>
</svg>
