<svg width="336" height="194" viewBox="0 0 336 194" fill="none" xmlns="http://www.w3.org/2000/svg">
<g clip-path="url(#clip0_0_252)">
<path d="M328.755 0H7.24528C3.24382 0 0 2.62209 0 5.8566V188.143C0 191.378 3.24382 194 7.24528 194H328.755C332.756 194 336 191.378 336 188.143V5.8566C336 2.62209 332.756 0 328.755 0Z" fill="#FFF2E6"/>
<mask id="mask0_0_252" style="mask-type:alpha" maskUnits="userSpaceOnUse" x="0" y="0" width="336" height="194">
<path d="M336 0H0V194H336V0Z" fill="#FFF2E6"/>
</mask>
<g mask="url(#mask0_0_252)">
<path opacity="0.5" d="M24.4529 77.234C57.715 77.234 84.6793 55.4378 84.6793 28.5509C84.6793 1.66405 57.715 -20.1321 24.4529 -20.1321C-8.80927 -20.1321 -35.7736 1.66405 -35.7736 28.5509C-35.7736 55.4378 -8.80927 77.234 24.4529 77.234Z" stroke="#F8DEBA" stroke-width="19"/>
<path opacity="0.5" d="M323.321 153.37C356.583 153.37 383.547 131.574 383.547 104.687C383.547 77.7998 356.583 56.0037 323.321 56.0037C290.059 56.0037 263.094 77.7998 263.094 104.687C263.094 131.574 290.059 153.37 323.321 153.37Z" stroke="#F8DEBA" stroke-width="19"/>
<g filter="url(#filter0_d_0_252)">
<path d="M23.5472 38.7999C23.5472 33.5439 28.8184 29.283 35.3208 29.283H300.679C307.182 29.283 312.453 33.5439 312.453 38.7999V194H23.5472V38.7999Z" fill="white"/>
</g>
<path d="M276.226 61.8604H60.6793C53.9268 61.8604 48.4529 66.2851 48.4529 71.7434V91.5094C48.4529 96.9677 53.9268 101.392 60.6793 101.392H276.226C282.979 101.392 288.453 96.9677 288.453 91.5094V71.7434C288.453 66.2851 282.979 61.8604 276.226 61.8604Z" fill="white"/>
<path d="M69.0856 83.3483H65.9756V85.8622H64.6207V83.3483H61.5107V82.2406H64.6207V79.7267H65.9756V82.2406H69.0856V83.3483ZM76.3775 81.8299C77.0857 81.9712 77.64 82.2326 78.0403 82.614C78.4406 82.9954 78.6407 83.4559 78.6407 83.9954C78.6407 84.5013 78.4662 84.9457 78.1172 85.3271C77.7785 85.7004 77.2961 85.9867 76.67 86.1858C76.0541 86.3849 75.3408 86.4845 74.5299 86.4845C73.719 86.4845 73.0005 86.3849 72.3744 86.1858C71.7586 85.9867 71.2761 85.7004 70.9272 85.3271C70.5885 84.9457 70.4191 84.5013 70.4191 83.9954C70.4191 83.4559 70.6193 82.9954 71.0196 82.614C71.4199 82.2326 71.9741 81.9712 72.6824 81.8299C72.0665 81.6638 71.5789 81.4024 71.2197 81.0459C70.8707 80.6894 70.6963 80.2743 70.6963 79.8014C70.6963 79.3204 70.8604 78.9009 71.1889 78.5444C71.5173 78.1791 71.969 77.9016 72.5438 77.7106C73.1289 77.5114 73.7909 77.4119 74.5299 77.4119C75.2689 77.4119 75.9258 77.5114 76.5006 77.7106C77.0857 77.9016 77.5424 78.1791 77.8709 78.5444C78.1993 78.9009 78.3636 79.3204 78.3636 79.8014C78.3636 80.2823 78.1839 80.7055 77.8247 81.0708C77.4757 81.4273 76.9933 81.6806 76.3775 81.8299ZM74.5299 78.6688C73.9243 78.6688 73.447 78.7808 73.0981 79.0049C72.749 79.2289 72.5746 79.5481 72.5746 79.9631C72.5746 80.3533 72.749 80.6725 73.0981 80.9214C73.4573 81.1623 73.9345 81.3197 74.5299 81.3944C75.1252 81.3197 75.5973 81.1623 75.9464 80.9214C76.3055 80.6725 76.4852 80.3533 76.4852 79.9631C76.4852 79.5481 76.3107 79.2289 75.9618 79.0049C75.6127 78.7808 75.1354 78.6688 74.5299 78.6688ZM74.5299 85.2275C75.2278 85.2275 75.7718 85.1111 76.1619 84.879C76.5622 84.647 76.7624 84.3146 76.7624 83.8834C76.7624 83.4771 76.5571 83.1491 76.1465 82.9002C75.7462 82.6513 75.2073 82.4895 74.5299 82.4149C73.8525 82.4895 73.3084 82.6513 72.8979 82.9002C72.4976 83.1491 72.2975 83.4771 72.2975 83.8834C72.2975 84.3146 72.4925 84.647 72.8825 84.879C73.2828 85.1111 73.8319 85.2275 74.5299 85.2275ZM85.6091 81.8299C86.3174 81.9712 86.8716 82.2326 87.2719 82.614C87.6722 82.9954 87.8724 83.4559 87.8724 83.9954C87.8724 84.5013 87.6979 84.9457 87.3489 85.3271C87.0102 85.7004 86.5278 85.9867 85.9017 86.1858C85.2858 86.3849 84.5725 86.4845 83.7616 86.4845C82.9507 86.4845 82.2323 86.3849 81.6061 86.1858C80.9903 85.9867 80.5079 85.7004 80.1589 85.3271C79.8201 84.9457 79.6508 84.5013 79.6508 83.9954C79.6508 83.4559 79.8509 82.9954 80.2512 82.614C80.6515 82.2326 81.2058 81.9712 81.914 81.8299C81.2982 81.6638 80.8107 81.4024 80.4514 81.0459C80.1024 80.6894 79.9279 80.2743 79.9279 79.8014C79.9279 79.3204 80.0922 78.9009 80.4206 78.5444C80.7491 78.1791 81.2007 77.9016 81.7755 77.7106C82.3605 77.5114 83.0226 77.4119 83.7616 77.4119C84.5006 77.4119 85.1576 77.5114 85.7323 77.7106C86.3174 77.9016 86.7742 78.1791 87.1026 78.5444C87.431 78.9009 87.5952 79.3204 87.5952 79.8014C87.5952 80.2823 87.4157 80.7055 87.0564 81.0708C86.7074 81.4273 86.225 81.6806 85.6091 81.8299ZM83.7616 78.6688C83.1561 78.6688 82.6788 78.7808 82.3297 79.0049C81.9808 79.2289 81.8063 79.5481 81.8063 79.9631C81.8063 80.3533 81.9808 80.6725 82.3297 80.9214C82.689 81.1623 83.1663 81.3197 83.7616 81.3944C84.357 81.3197 84.8291 81.1623 85.178 80.9214C85.5373 80.6725 85.7169 80.3533 85.7169 79.9631C85.7169 79.5481 85.5425 79.2289 85.1934 79.0049C84.8445 78.7808 84.3672 78.6688 83.7616 78.6688ZM83.7616 85.2275C84.4596 85.2275 85.0036 85.1111 85.3936 84.879C85.7939 84.647 85.994 84.3146 85.994 83.8834C85.994 83.4771 85.7888 83.1491 85.3782 82.9002C84.9779 82.6513 84.439 82.4895 83.7616 82.4149C83.0841 82.4895 82.5402 82.6513 82.1296 82.9002C81.7293 83.1491 81.5291 83.4771 81.5291 83.8834C81.5291 84.3146 81.7242 84.647 82.1142 84.879C82.5145 85.1111 83.0637 85.2275 83.7616 85.2275ZM92.9932 86.4969C91.69 86.4969 90.6938 86.1111 90.0065 85.3395C89.329 84.5599 88.9903 83.4273 88.9903 81.942C88.9903 80.4815 89.329 79.3658 90.0065 78.5942C90.6938 77.8226 91.69 77.4368 92.9932 77.4368C94.2965 77.4368 95.2873 77.8226 95.9647 78.5942C96.6521 79.3577 96.9963 80.4734 96.9963 81.942C96.9963 83.4185 96.6521 84.5474 95.9647 85.3271C95.2873 86.1067 94.2965 86.4969 92.9932 86.4969ZM92.9932 85.2399C93.7015 85.2399 94.215 84.9786 94.5329 84.4559C94.8616 83.9251 95.0256 83.0869 95.0256 81.942C95.0256 80.8138 94.8616 79.9924 94.5329 79.4778C94.215 78.9551 93.7015 78.6937 92.9932 78.6937C92.285 78.6937 91.767 78.9551 91.4382 79.4778C91.1203 79.9924 90.9609 80.8138 90.9609 81.942C90.9609 83.0869 91.1203 83.9251 91.4382 84.4559C91.767 84.9786 92.285 85.2399 92.9932 85.2399Z" fill="#1C1C50"/>
<path d="M127.165 77.5238H134.278V78.5692H128.735V81.3569H133.97V82.4023H128.735V85.3394H134.278V86.3848H127.165V77.5238ZM140.249 79.9631C142.106 79.9631 143.035 80.8013 143.035 82.477V86.3848H141.48V82.5517C141.48 82.0041 141.347 81.6058 141.08 81.3569C140.824 81.108 140.408 80.9836 139.833 80.9836C139.176 80.9836 138.648 81.1498 138.247 81.4814C137.857 81.813 137.662 82.2574 137.662 82.813V86.3848H136.123V81.8796C136.123 81.2244 136.082 80.6351 135.999 80.1124H137.447L137.585 81.1951C137.832 80.7969 138.186 80.4938 138.648 80.2866C139.119 80.0707 139.654 79.9631 140.249 79.9631ZM147.266 81.0831V84.2318C147.266 84.663 147.379 84.9705 147.605 85.1527C147.841 85.327 148.164 85.4141 148.575 85.4141C148.842 85.4141 149.113 85.3812 149.391 85.3145V86.335C149.052 86.4266 148.667 86.4719 148.236 86.4719C147.435 86.4719 146.814 86.2897 146.373 85.9244C145.932 85.559 145.711 85.0283 145.711 84.3314V81.0831H144.202V80.1124H145.711V78.5443L147.266 78.1087V80.1124H149.406V81.0831H147.266ZM157.463 83.2735H151.92C151.972 84.742 152.798 85.4763 154.399 85.4763C155.292 85.4763 156.108 85.2399 156.847 84.7669L157.324 85.663C156.975 85.9119 156.529 86.111 155.985 86.2604C155.451 86.4017 154.912 86.4719 154.368 86.4719C153.126 86.4719 152.151 86.1857 151.443 85.6132C150.735 85.0327 150.38 84.2398 150.38 83.2362C150.38 82.5971 150.534 82.029 150.842 81.5312C151.16 81.0334 151.602 80.6476 152.166 80.3738C152.731 80.1 153.373 79.9631 154.091 79.9631C155.138 79.9631 155.959 80.2369 156.554 80.7844C157.16 81.332 157.463 82.0912 157.463 83.0619V83.2735ZM154.122 80.8965C153.537 80.8965 153.059 81.0377 152.69 81.3196C152.32 81.6014 152.084 82.0041 151.982 82.5268H156.092C156.031 81.996 155.831 81.5934 155.492 81.3196C155.153 81.0377 154.697 80.8965 154.122 80.8965ZM163.111 79.9631C163.348 79.9631 163.594 79.9923 163.85 80.0502L163.82 81.1951C163.542 81.1124 163.24 81.0707 162.911 81.0707C162.203 81.0707 161.669 81.2449 161.31 81.5934C160.961 81.9338 160.786 82.365 160.786 82.8877V86.3848H159.247V81.8796C159.247 81.2244 159.206 80.6351 159.124 80.1124H160.571L160.709 81.2449C160.915 80.8298 161.233 80.515 161.664 80.2991C162.095 80.0751 162.578 79.9631 163.111 79.9631ZM179.779 77.5238V86.3848H178.347V80.2991L175.099 86.3848H174.005L170.711 80.3364L170.726 86.3848H169.294V77.5238H170.572L174.56 84.8416L178.501 77.5238H179.779ZM185.547 86.4719C184.787 86.4719 184.12 86.3394 183.546 86.0737C182.971 85.8079 182.524 85.4309 182.206 84.9412C181.898 84.4514 181.744 83.8789 181.744 83.2237C181.744 82.5685 181.898 81.996 182.206 81.5063C182.524 81.0085 182.971 80.6271 183.546 80.3613C184.12 80.0956 184.787 79.9631 185.547 79.9631C186.296 79.9631 186.958 80.0956 187.533 80.3613C188.107 80.6271 188.549 81.0085 188.857 81.5063C189.175 81.996 189.335 82.5685 189.335 83.2237C189.335 83.8789 189.175 84.4514 188.857 84.9412C188.549 85.4309 188.107 85.8079 187.533 86.0737C186.958 86.3394 186.296 86.4719 185.547 86.4719ZM185.532 85.4763C186.25 85.4763 186.799 85.2852 187.179 84.9038C187.559 84.5224 187.749 83.9624 187.749 83.2237C187.749 82.5019 187.553 81.9463 187.164 81.5561C186.783 81.1659 186.245 80.9711 185.547 80.9711C184.839 80.9711 184.289 81.1659 183.9 81.5561C183.509 81.9463 183.315 82.5019 183.315 83.2237C183.315 83.9624 183.504 84.5224 183.884 84.9038C184.274 85.2852 184.824 85.4763 185.532 85.4763ZM195.263 79.9631C195.941 79.9631 196.541 80.0956 197.064 80.3613C197.588 80.6271 197.993 81.0041 198.281 81.4938C198.568 81.9836 198.712 82.5517 198.712 83.1988C198.712 83.846 198.562 84.4185 198.265 84.9163C197.977 85.406 197.573 85.7875 197.049 86.0612C196.526 86.335 195.93 86.4719 195.263 86.4719C194.667 86.4719 194.144 86.3724 193.693 86.1733C193.251 85.9661 192.917 85.6711 192.692 85.2896V86.3848H191.152V77.2251H192.692V81.1454C192.917 80.772 193.251 80.4814 193.693 80.2742C194.144 80.067 194.667 79.9631 195.263 79.9631ZM194.909 85.4763C195.606 85.4763 196.151 85.2772 196.541 84.8789C196.93 84.4726 197.126 83.9126 197.126 83.1988C197.126 82.4938 196.93 81.9463 196.541 81.5561C196.151 81.1659 195.606 80.9711 194.909 80.9711C194.201 80.9711 193.651 81.1659 193.262 81.5561C192.881 81.9463 192.692 82.5019 192.692 83.2237C192.692 83.9456 192.881 84.5012 193.262 84.8914C193.651 85.2816 194.201 85.4763 194.909 85.4763ZM200.534 80.1124H202.074V86.3848H200.534V80.1124ZM202.197 77.3744V78.6936H200.396V77.3744H202.197ZM204.353 77.2251H205.893V86.3848H204.353V77.2251ZM214.793 83.2735H209.25C209.301 84.742 210.128 85.4763 211.729 85.4763C212.622 85.4763 213.438 85.2399 214.177 84.7669L214.654 85.663C214.305 85.9119 213.858 86.111 213.315 86.2604C212.78 86.4017 212.242 86.4719 211.698 86.4719C210.456 86.4719 209.481 86.1857 208.773 85.6132C208.065 85.0327 207.711 84.2398 207.711 83.2362C207.711 82.5971 207.864 82.029 208.172 81.5312C208.49 81.0334 208.931 80.6476 209.496 80.3738C210.061 80.1 210.702 79.9631 211.421 79.9631C212.468 79.9631 213.288 80.2369 213.884 80.7844C214.489 81.332 214.793 82.0912 214.793 83.0619V83.2735ZM211.452 80.8965C210.867 80.8965 210.389 81.0377 210.02 81.3196C209.65 81.6014 209.414 82.0041 209.312 82.5268H213.423C213.361 81.996 213.161 81.5934 212.822 81.3196C212.483 81.0377 212.026 80.8965 211.452 80.8965ZM229.811 77.5238V86.3848H228.595L222.313 79.6893V86.3848H220.82V77.5238H222.021L228.318 84.2318V77.5238H229.811ZM238.972 80.1124V86.3848H237.463V85.3394C237.217 85.7047 236.878 85.9866 236.447 86.1857C236.016 86.3768 235.529 86.4719 234.984 86.4719C233.116 86.4719 232.182 85.6337 232.182 83.958V80.1124H233.722V83.9456C233.722 84.4602 233.851 84.8416 234.107 85.0905C234.374 85.3314 234.774 85.4514 235.308 85.4514C235.944 85.4514 236.453 85.2852 236.832 84.9536C237.222 84.622 237.417 84.182 237.417 83.6344V80.1124H238.972ZM250.103 79.9631C251.827 79.9631 252.689 80.8013 252.689 82.477V86.3848H251.134V82.5392C251.134 81.9997 251.016 81.6058 250.78 81.3569C250.555 81.108 250.185 80.9836 249.672 80.9836C249.077 80.9836 248.604 81.1498 248.255 81.4814C247.916 81.813 247.747 82.2654 247.747 82.8379V86.3848H246.192V82.5392C246.192 81.9997 246.074 81.6058 245.838 81.3569C245.612 81.108 245.243 80.9836 244.729 80.9836C244.134 80.9836 243.662 81.1498 243.313 81.4814C242.964 81.813 242.789 82.2654 242.789 82.8379V86.3848H241.25V81.8796C241.25 81.2244 241.209 80.6351 241.127 80.1124H242.574L242.712 81.1578C242.938 80.7764 243.261 80.4814 243.682 80.2742C244.104 80.067 244.596 79.9631 245.16 79.9631C246.361 79.9631 247.147 80.3657 247.516 81.1703C247.752 80.7969 248.096 80.5026 248.548 80.2866C249.01 80.0707 249.528 79.9631 250.103 79.9631ZM259.028 79.9631C259.705 79.9631 260.306 80.0956 260.829 80.3613C261.353 80.6271 261.759 81.0041 262.046 81.4938C262.333 81.9836 262.477 82.5517 262.477 83.1988C262.477 83.846 262.328 84.4185 262.03 84.9163C261.743 85.406 261.337 85.7875 260.814 86.0612C260.29 86.335 259.695 86.4719 259.028 86.4719C258.433 86.4719 257.909 86.3724 257.458 86.1733C257.016 85.9661 256.682 85.6711 256.457 85.2896V86.3848H254.917V77.2251H256.457V81.1454C256.682 80.772 257.016 80.4814 257.458 80.2742C257.909 80.067 258.433 79.9631 259.028 79.9631ZM258.674 85.4763C259.372 85.4763 259.915 85.2772 260.306 84.8789C260.696 84.4726 260.891 83.9126 260.891 83.1988C260.891 82.4938 260.696 81.9463 260.306 81.5561C259.915 81.1659 259.372 80.9711 258.674 80.9711C257.966 80.9711 257.417 81.1659 257.026 81.5561C256.647 81.9463 256.457 82.5019 256.457 83.2237C256.457 83.9456 256.647 84.5012 257.026 84.8914C257.417 85.2816 257.966 85.4763 258.674 85.4763ZM270.919 83.2735H265.377C265.428 84.742 266.254 85.4763 267.855 85.4763C268.748 85.4763 269.564 85.2399 270.303 84.7669L270.781 85.663C270.432 85.9119 269.986 86.111 269.441 86.2604C268.908 86.4017 268.369 86.4719 267.825 86.4719C266.583 86.4719 265.608 86.1857 264.899 85.6132C264.191 85.0327 263.837 84.2398 263.837 83.2362C263.837 82.5971 263.991 82.029 264.299 81.5312C264.618 81.0334 265.059 80.6476 265.623 80.3738C266.188 80.1 266.829 79.9631 267.548 79.9631C268.594 79.9631 269.416 80.2369 270.011 80.7844C270.617 81.332 270.919 82.0912 270.919 83.0619V83.2735ZM267.578 80.8965C266.993 80.8965 266.516 81.0377 266.146 81.3196C265.777 81.6014 265.541 82.0041 265.438 82.5268H269.549C269.487 81.996 269.287 81.5934 268.949 81.3196C268.61 81.0377 268.153 80.8965 267.578 80.8965ZM276.569 79.9631C276.804 79.9631 277.051 79.9923 277.308 80.0502L277.277 81.1951C277 81.1124 276.696 81.0707 276.369 81.0707C275.66 81.0707 275.126 81.2449 274.767 81.5934C274.418 81.9338 274.244 82.365 274.244 82.8877V86.3848H272.704V81.8796C272.704 81.2244 272.663 80.6351 272.581 80.1124H274.028L274.167 81.2449C274.372 80.8298 274.69 80.515 275.122 80.2991C275.553 80.0751 276.034 79.9631 276.569 79.9631Z" fill="#BDC7D2"/>
<path d="M113.66 61.4944V101.759" stroke="#BDC7D2"/>
<path d="M276.226 61.8604H60.6793C53.9268 61.8604 48.4529 66.2851 48.4529 71.7434V91.5094C48.4529 96.9677 53.9268 101.392 60.6793 101.392H276.226C282.979 101.392 288.453 96.9677 288.453 91.5094V71.7434C288.453 66.2851 282.979 61.8604 276.226 61.8604Z" stroke="#BDC7D2"/>
<path d="M276.226 119.694H60.6793C53.9268 119.694 48.4529 124.119 48.4529 129.577V149.343C48.4529 154.802 53.9268 159.226 60.6793 159.226H276.226C282.979 159.226 288.453 154.802 288.453 149.343V129.577C288.453 124.119 282.979 119.694 276.226 119.694Z" fill="white"/>
<path d="M146.657 144.951H144.44L142.957 141.828C142.826 141.538 142.625 141.336 142.354 141.222C142.082 141.108 141.729 141.05 141.294 141.05H139.191V144.951H137.104V135.569H142.076C143.391 135.569 144.391 135.802 145.076 136.267C145.761 136.733 146.103 137.4 146.103 138.27C146.103 138.894 145.896 139.425 145.483 139.865C145.081 140.295 144.505 140.602 143.755 140.787C144.44 140.901 144.935 141.288 145.239 141.947L146.657 144.951ZM141.783 139.733C142.576 139.733 143.163 139.614 143.544 139.377C143.924 139.14 144.114 138.78 144.114 138.296C144.114 137.822 143.924 137.471 143.544 137.242C143.174 137.005 142.587 136.886 141.783 136.886H139.158V139.733H141.783ZM155.61 141.709H149.937C149.98 142.421 150.197 142.948 150.589 143.291C150.991 143.624 151.583 143.791 152.366 143.791C153.268 143.791 154.104 143.554 154.876 143.08L155.463 144.213C155.072 144.468 154.588 144.674 154.012 144.832C153.447 144.982 152.871 145.056 152.284 145.056C150.936 145.056 149.877 144.749 149.105 144.134C148.334 143.519 147.948 142.676 147.948 141.604C147.948 140.927 148.116 140.326 148.453 139.799C148.79 139.272 149.263 138.863 149.871 138.573C150.48 138.274 151.17 138.125 151.942 138.125C153.072 138.125 153.963 138.424 154.615 139.021C155.278 139.61 155.61 140.422 155.61 141.459V141.709ZM151.991 139.311C151.447 139.311 151.002 139.443 150.654 139.706C150.317 139.961 150.1 140.335 150.002 140.826H153.833C153.768 140.326 153.577 139.948 153.262 139.693C152.958 139.438 152.534 139.311 151.991 139.311ZM165.29 138.296V144.74C165.29 145.777 164.937 146.563 164.231 147.099C163.524 147.635 162.486 147.903 161.117 147.903C159.845 147.903 158.726 147.687 157.759 147.257L158.085 146.005C159.085 146.427 160.079 146.638 161.068 146.638C162.535 146.638 163.269 146.049 163.269 144.872V143.554C163.019 143.914 162.655 144.209 162.177 144.437C161.698 144.657 161.16 144.767 160.563 144.767C159.845 144.767 159.204 144.63 158.639 144.358C158.085 144.077 157.65 143.686 157.335 143.185C157.031 142.676 156.878 142.096 156.878 141.446C156.878 140.796 157.031 140.22 157.335 139.72C157.65 139.21 158.085 138.819 158.639 138.547C159.204 138.266 159.845 138.125 160.563 138.125C161.171 138.125 161.709 138.231 162.177 138.441C162.655 138.643 163.019 138.929 163.269 139.298V138.296H165.29ZM161.101 143.475C161.774 143.475 162.302 143.295 162.682 142.935C163.073 142.575 163.269 142.078 163.269 141.446C163.269 140.813 163.079 140.317 162.698 139.957C162.318 139.597 161.785 139.417 161.101 139.417C160.427 139.417 159.894 139.597 159.503 139.957C159.123 140.317 158.933 140.813 158.933 141.446C158.933 142.078 159.123 142.575 159.503 142.935C159.894 143.295 160.427 143.475 161.101 143.475ZM167.492 138.296H169.513V144.951H167.492V138.296ZM169.627 135.279V136.9H167.362V135.279H169.627ZM174.758 145.056C173.269 145.056 172.085 144.775 171.204 144.213L171.775 143.053C172.655 143.581 173.66 143.844 174.791 143.844C175.28 143.844 175.655 143.778 175.915 143.646C176.187 143.515 176.323 143.33 176.323 143.093C176.323 142.891 176.231 142.733 176.046 142.619C175.861 142.496 175.546 142.39 175.1 142.302L173.731 142.052C172.231 141.788 171.481 141.169 171.481 140.194C171.481 139.79 171.623 139.434 171.905 139.127C172.188 138.81 172.584 138.564 173.095 138.389C173.606 138.213 174.198 138.125 174.872 138.125C175.459 138.125 176.024 138.2 176.568 138.349C177.111 138.49 177.589 138.696 178.002 138.968L177.399 140.089C176.573 139.597 175.725 139.351 174.856 139.351C174.389 139.351 174.024 139.421 173.764 139.561C173.503 139.702 173.372 139.895 173.372 140.141C173.372 140.335 173.448 140.488 173.601 140.602C173.764 140.717 174.035 140.813 174.416 140.892L175.818 141.143C176.633 141.292 177.225 141.525 177.595 141.841C177.975 142.149 178.165 142.553 178.165 143.053C178.165 143.668 177.861 144.156 177.252 144.516C176.644 144.876 175.812 145.056 174.758 145.056ZM182.422 139.535V142.513C182.422 143.295 182.873 143.686 183.775 143.686C184.025 143.686 184.296 143.651 184.59 143.581V144.885C184.231 144.991 183.797 145.043 183.286 145.043C182.351 145.043 181.634 144.832 181.134 144.411C180.634 143.989 180.384 143.383 180.384 142.592V139.535H178.803V138.296H180.384V136.676L182.422 136.122V138.296H184.606V139.535H182.422ZM193.212 141.709H187.539C187.582 142.421 187.8 142.948 188.191 143.291C188.593 143.624 189.185 143.791 189.968 143.791C190.87 143.791 191.707 143.554 192.478 143.08L193.065 144.213C192.674 144.468 192.19 144.674 191.614 144.832C191.049 144.982 190.473 145.056 189.886 145.056C188.539 145.056 187.479 144.749 186.707 144.134C185.936 143.519 185.55 142.676 185.55 141.604C185.55 140.927 185.718 140.326 186.055 139.799C186.392 139.272 186.865 138.863 187.474 138.573C188.082 138.274 188.772 138.125 189.544 138.125C190.674 138.125 191.565 138.424 192.217 139.021C192.88 139.61 193.212 140.422 193.212 141.459V141.709ZM189.593 139.311C189.049 139.311 188.604 139.443 188.256 139.706C187.919 139.961 187.702 140.335 187.604 140.826H191.435C191.37 140.326 191.179 139.948 190.864 139.693C190.56 139.438 190.136 139.311 189.593 139.311ZM199.372 138.138C199.687 138.138 199.959 138.173 200.187 138.244L200.171 139.746C199.823 139.632 199.464 139.575 199.095 139.575C198.399 139.575 197.867 139.737 197.497 140.062C197.139 140.387 196.959 140.818 196.959 141.354V144.951H194.938V140.181C194.938 139.478 194.895 138.85 194.808 138.296H196.715L196.878 139.469C197.084 139.039 197.41 138.709 197.856 138.481C198.302 138.253 198.807 138.138 199.372 138.138Z" fill="url(#paint0_linear_0_252)"/>
<path d="M276.226 119.694H60.6793C53.9268 119.694 48.4529 124.119 48.4529 129.577V149.343C48.4529 154.802 53.9268 159.226 60.6793 159.226H276.226C282.979 159.226 288.453 154.802 288.453 149.343V129.577C288.453 124.119 282.979 119.694 276.226 119.694Z" stroke="url(#paint1_linear_0_252)"/>
<g opacity="0.3">
<path opacity="0.3" d="M259.642 148.287C252.856 149.63 246.099 146.197 244.479 140.853C242.818 135.367 247.064 129.905 253.676 128.596C260.288 127.287 267.22 130.686 268.839 136.031C270.501 141.515 266.427 146.944 259.642 148.287ZM254.315 130.706C248.922 131.774 245.637 136.151 246.957 140.511C248.279 144.871 253.694 147.526 259.088 146.458C264.482 145.391 267.766 141.013 266.445 136.654C264.95 132.328 259.709 129.638 254.315 130.706Z" fill="#12E1FF"/>
<path opacity="0.3" d="M260.962 152.647C251.218 154.575 241.472 149.796 239.085 141.92C236.699 134.044 242.611 126.165 252.355 124.236C262.099 122.307 271.846 127.086 274.232 134.962C276.619 142.839 270.706 150.718 260.962 152.647ZM253.207 127.049C245.378 128.599 240.516 135.077 242.434 141.407C244.352 147.736 252.366 151.665 260.195 150.115C268.026 148.565 272.886 142.087 270.969 135.757C268.835 129.323 261.037 125.499 253.207 127.049Z" fill="#12E1FF"/>
</g>
<path d="M290.574 206.814C290.574 206.814 283.704 198.801 281.418 197.359C279.13 195.917 275.599 193.624 274.064 192.632C271.922 191.261 264.091 183.737 263.631 183.03C260.405 178.085 255.294 172.615 254.021 171.671C251.793 170.018 247.669 169.438 247.881 168.1C248.092 166.762 253.163 164.362 257.538 166.587C262.029 168.789 267.775 175.131 267.775 175.131C267.775 175.131 266.867 171.322 265.894 168.922C264.92 166.521 259.927 155.744 258.866 153.461C257.92 151.155 254.051 142.049 253.74 140.615C253.429 139.181 252.37 136.499 255.31 135.618C258.017 134.782 259.545 136.973 260.751 139.327C261.958 141.681 264.995 148.857 266.49 151.752C267.955 154.553 270.508 160.13 271.665 161.098C272.822 162.066 274.71 162.19 274.71 162.19C274.71 162.19 274.468 158.948 274.389 157.468C274.306 156.786 274.062 153.943 277.465 153.369C280.636 152.84 282.303 155.901 282.303 155.901C282.303 155.901 283.151 155.035 284.605 154.947C286.174 154.835 287.218 155.427 288.139 156.84C288.426 157.381 289.087 158.746 289.087 158.746C289.087 158.746 289.963 157.974 291.328 158.003C292.839 158.103 293.789 159.61 294.395 160.387C294.884 161.188 298.713 167.311 299.513 169.546C300.313 171.78 301.841 183.743 302.616 185.484C303.389 187.225 317.196 201.444 317.196 201.444L290.545 206.72L290.574 206.814Z" fill="#FFBD95"/>
<path d="M255.426 135.594C256.766 135.13 257.752 135.533 258.417 136.099C259.053 136.572 260.167 139.841 259.961 140.38C259.753 140.92 256.638 142.036 255.941 141.774C254.984 141.465 253.868 138.595 253.757 137.82C253.5 136.973 253.854 136.105 255.426 135.594Z" fill="#FFC8A7"/>
<path d="M259.507 167.793C259.507 167.793 263.124 170.367 266.504 173.787C267.024 174.282 267.775 175.131 267.775 175.131C267.775 175.131 267.466 178.184 267.749 179.523C267.914 180.886 269.439 183.476 269.439 183.476C269.439 183.476 266.806 181.704 266.242 178.625C265.791 176.321 265.654 175.052 265.281 174.228C264.452 171.899 259.507 167.793 259.507 167.793Z" fill="#F9A983"/>
<path d="M282.564 155.949C282.564 155.949 283.752 161.497 284.443 162.557C285.163 163.711 286.001 164.443 286.583 164.328C287.398 164.167 287.084 163.131 286.307 161.789C285.414 160.47 282.564 155.949 282.564 155.949Z" fill="#F9A983"/>
<path d="M289.348 158.794C289.348 158.794 290.459 162.463 291.15 163.523C291.841 164.583 292.39 165.172 293 165.151C293.611 165.13 293.672 164.519 293.183 163.718C292.349 162.188 289.348 158.794 289.348 158.794Z" fill="#F9A983"/>
<path d="M271.435 160.745C271.435 160.745 272.067 162.015 273.254 162.678C274.441 163.341 275.024 163.225 275.024 163.225L274.826 162.167C274.826 162.167 273.926 162.046 273.114 161.808C272.04 161.522 271.435 160.745 271.435 160.745Z" fill="#F9A983"/>
<path d="M255.797 141.703C256.492 141.965 259.521 140.966 259.844 140.404C259.437 140.285 258.449 140.281 257.43 140.583C256.324 141.001 255.972 141.469 255.797 141.703Z" fill="#FFD3B9"/>
<path d="M287.868 197.478C284.51 195.351 279.897 193.97 275.639 191.722C271.496 189.451 265.774 184.002 264.853 182.589C261.713 177.926 257.148 173.445 255.73 172.429C252.778 170.421 255.633 169.257 252.282 170.819C252.861 171.103 253.469 171.481 254.049 171.765C255.322 172.71 260.433 178.179 263.659 183.125C264.119 183.832 271.95 191.355 274.092 192.726C275.627 193.719 279.158 196.011 281.446 197.453C283.733 198.895 290.602 206.908 290.602 206.908L295.723 205.895C293.763 203.092 290.184 199.014 287.868 197.478Z" fill="#F9A983"/>
<path d="M253.412 171.292C253.645 171.246 254.291 170.122 254.117 169.956C254.06 169.768 250.671 167.946 249.451 167.989C248.23 168.031 247.356 168.403 247.441 168.685C247.527 168.967 253.063 171.362 253.412 171.292Z" fill="#FFC8A7"/>
<path d="M299.774 169.593C298.945 167.265 295.262 161.213 294.656 160.436C294.167 159.635 293.1 158.151 291.589 158.052C290.079 157.951 289.348 158.795 289.348 158.795C289.348 158.795 288.687 157.429 288.399 156.887C287.506 155.569 286.435 154.884 284.866 154.995C283.412 155.083 282.564 155.949 282.564 155.949C282.564 155.949 282.305 155.502 281.756 154.912C278.693 161.901 277.978 169.72 280.344 177.528C283.963 189.476 293.934 198.77 306.517 203.658L317.341 201.516C317.341 201.516 303.651 187.274 302.76 185.556C301.985 183.814 300.603 171.922 299.774 169.593Z" fill="#FFC6A3"/>
</g>
</g>
<defs>
<filter id="filter0_d_0_252" x="-0.45282" y="5.28296" width="336.906" height="212.717" filterUnits="userSpaceOnUse" color-interpolation-filters="sRGB">
<feFlood flood-opacity="0" result="BackgroundImageFix"/>
<feColorMatrix in="SourceAlpha" type="matrix" values="0 0 0 0 0 0 0 0 0 0 0 0 0 0 0 0 0 0 127 0" result="hardAlpha"/>
<feOffset/>
<feGaussianBlur stdDeviation="12"/>
<feColorMatrix type="matrix" values="0 0 0 0 0.977647 0 0 0 0 0.87141 0 0 0 0 0.724314 0 0 0 0.7 0"/>
<feBlend mode="normal" in2="BackgroundImageFix" result="effect1_dropShadow_0_252"/>
<feBlend mode="normal" in="SourceGraphic" in2="effect1_dropShadow_0_252" result="shape"/>
</filter>
<linearGradient id="paint0_linear_0_252" x1="168.453" y1="131.774" x2="168.453" y2="148.611" gradientUnits="userSpaceOnUse">
<stop stop-color="#41FFFF"/>
<stop offset="1" stop-color="#12E1FF"/>
</linearGradient>
<linearGradient id="paint1_linear_0_252" x1="168.453" y1="119.328" x2="168.453" y2="159.592" gradientUnits="userSpaceOnUse">
<stop stop-color="#41FFFF"/>
<stop offset="1" stop-color="#12E1FF"/>
</linearGradient>
<clipPath id="clip0_0_252">
<rect width="336" height="194" fill="white"/>
</clipPath>
</defs>
</svg>
