<svg width="336" height="196" viewBox="0 0 336 196" fill="none" xmlns="http://www.w3.org/2000/svg">
<g clip-path="url(#clip0_0_353)">
<path d="M328.755 0H7.24528C3.24382 0 0 2.64912 0 5.91698V190.083C0 193.351 3.24382 196 7.24528 196H328.755C332.756 196 336 193.351 336 190.083V5.91698C336 2.64912 332.756 0 328.755 0Z" fill="#DBEDF5"/>
<mask id="mask0_0_353" style="mask-type:alpha" maskUnits="userSpaceOnUse" x="0" y="0" width="336" height="196">
<path d="M336 0H0V196H336V0Z" fill="#FFF2E6"/>
</mask>
<g mask="url(#mask0_0_353)">
<path opacity="0.5" d="M24.4528 78.0302C57.715 78.0302 84.6792 56.0094 84.6792 28.8453C84.6792 1.68123 57.715 -20.3396 24.4528 -20.3396C-8.80931 -20.3396 -35.7736 1.68123 -35.7736 28.8453C-35.7736 56.0094 -8.80931 78.0302 24.4528 78.0302Z" stroke="#B8DBE5" stroke-width="19"/>
<path opacity="0.5" d="M323.321 154.951C356.583 154.951 383.547 132.93 383.547 105.766C383.547 78.6019 356.583 56.5811 323.321 56.5811C290.059 56.5811 263.094 78.6019 263.094 105.766C263.094 132.93 290.059 154.951 323.321 154.951Z" stroke="#B8DBE5" stroke-width="19"/>
<g filter="url(#filter0_d_0_353)">
<path d="M22.6415 39.2001C22.6415 33.8898 27.9127 29.585 34.4151 29.585H299.774C306.276 29.585 311.547 33.8898 311.547 39.2001V196H22.6415V39.2001Z" fill="white"/>
</g>
<path d="M59.5925 123.887C59.1819 124.301 58.6807 124.617 58.0891 124.833C57.5094 125.05 56.8694 125.159 56.1691 125.159C55.2272 125.159 54.3758 124.991 53.6151 124.656C52.8543 124.331 51.9849 123.748 51.0068 122.91C49.8596 122.792 48.8332 122.491 47.9275 122.008C47.0339 121.525 46.3336 120.904 45.8264 120.144C45.3313 119.375 45.0838 118.527 45.0838 117.6C45.0838 116.584 45.3796 115.672 45.9713 114.863C46.5751 114.045 47.4023 113.404 48.4528 112.94C49.5154 112.477 50.7049 112.245 52.0211 112.245C53.3373 112.245 54.5208 112.477 55.5713 112.94C56.6219 113.404 57.449 114.045 58.0528 114.863C58.6566 115.672 58.9585 116.584 58.9585 117.6C58.9585 118.803 58.5419 119.858 57.7087 120.766C56.8875 121.673 55.7947 122.304 54.4302 122.659C54.732 122.916 55.0219 123.098 55.2996 123.206C55.5894 123.325 55.8974 123.384 56.2234 123.384C57.0083 123.384 57.6966 123.127 58.2883 122.615L59.5925 123.887ZM48.0543 117.6C48.0543 118.241 48.2234 118.813 48.5615 119.316C48.9117 119.819 49.3886 120.213 49.9925 120.499C50.5963 120.775 51.2724 120.913 52.0211 120.913C52.7698 120.913 53.446 120.775 54.0498 120.499C54.6536 120.213 55.1246 119.819 55.4626 119.316C55.8129 118.813 55.9879 118.241 55.9879 117.6C55.9879 116.959 55.8129 116.387 55.4626 115.884C55.1246 115.381 54.6536 114.991 54.0498 114.715C53.446 114.429 52.7698 114.286 52.0211 114.286C51.2724 114.286 50.5963 114.429 49.9925 114.715C49.3886 114.991 48.9117 115.381 48.5615 115.884C48.2234 116.387 48.0543 116.959 48.0543 117.6Z" fill="#8391A0"/>
<path d="M75.1698 114.642H279.849" stroke="#D3D6DA" stroke-width="4" stroke-linecap="round"/>
<path d="M75.1698 124.996H153.962" stroke="#D3D6DA" stroke-width="4" stroke-linecap="round"/>
<path d="M180.097 59.804H145.941C143.369 59.804 141.283 61.5069 141.283 63.6077V81.3586C141.283 83.4592 143.369 85.1625 145.941 85.1625H180.097C182.669 85.1625 184.755 83.4592 184.755 81.3586V63.6077C184.755 61.5069 182.669 59.804 180.097 59.804ZM181.649 74.4942L171.879 66.5151C171.273 66.02 170.29 66.02 169.684 66.5151L156.809 77.0296L151.696 72.8546C151.09 72.3596 150.107 72.3596 149.501 72.8546L144.389 77.0296V63.6077C144.389 62.9074 145.083 62.3397 145.941 62.3397H180.097C180.955 62.3397 181.649 62.9074 181.649 63.6077V74.4942Z" fill="#8391A0"/>
<path d="M155.256 72.483C157.829 72.483 159.913 70.78 159.913 68.6793C159.913 66.5785 157.829 64.8755 155.256 64.8755C152.683 64.8755 150.599 66.5785 150.599 68.6793C150.599 70.78 152.683 72.483 155.256 72.483Z" fill="#8391A0"/>
<path d="M148.528 137.57H46.1887C43.1876 137.57 40.7547 139.557 40.7547 142.008V156.8C40.7547 159.251 43.1876 161.238 46.1887 161.238H148.528C151.529 161.238 153.962 159.251 153.962 156.8V142.008C153.962 139.557 151.529 137.57 148.528 137.57Z" fill="#EFF0F1"/>
<path d="M67.0189 146.445H149.434" stroke="#D3D6DA" stroke-width="2" stroke-linecap="round"/>
<path d="M67.0189 151.623H113.208" stroke="#D3D6DA" stroke-width="2" stroke-linecap="round"/>
<path d="M53.434 151.993C55.6848 151.993 57.5094 150.502 57.5094 148.664C57.5094 146.826 55.6848 145.336 53.434 145.336C51.1831 145.336 49.3585 146.826 49.3585 148.664C49.3585 150.502 51.1831 151.993 53.434 151.993Z" fill="white" stroke="#8391A0" stroke-width="3"/>
<path d="M148.528 165.676H46.1887C43.1876 165.676 40.7547 167.662 40.7547 170.113V184.906C40.7547 187.357 43.1876 189.343 46.1887 189.343H148.528C151.529 189.343 153.962 187.357 153.962 184.906V170.113C153.962 167.662 151.529 165.676 148.528 165.676Z" fill="#EFF0F1"/>
<path d="M67.0189 174.551H149.434" stroke="#D3D6DA" stroke-width="2" stroke-linecap="round"/>
<path d="M67.0189 179.728H113.208" stroke="#D3D6DA" stroke-width="2" stroke-linecap="round"/>
<path d="M53.434 180.098C55.6848 180.098 57.5094 178.608 57.5094 176.77C57.5094 174.932 55.6848 173.441 53.434 173.441C51.1831 173.441 49.3585 174.932 49.3585 176.77C49.3585 178.608 51.1831 180.098 53.434 180.098Z" fill="white" stroke="#8391A0" stroke-width="3"/>
<path d="M276.226 137.57H173.887C170.886 137.57 168.453 139.557 168.453 142.008V156.8C168.453 159.251 170.886 161.238 173.887 161.238H276.226C279.228 161.238 281.66 159.251 281.66 156.8V142.008C281.66 139.557 279.228 137.57 276.226 137.57Z" fill="#EFF0F1"/>
<path d="M194.717 146.445H277.132" stroke="#D3D6DA" stroke-width="2" stroke-linecap="round"/>
<path d="M194.717 151.623H240.906" stroke="#D3D6DA" stroke-width="2" stroke-linecap="round"/>
<path d="M181.132 151.993C183.383 151.993 185.208 150.502 185.208 148.664C185.208 146.826 183.383 145.336 181.132 145.336C178.881 145.336 177.057 146.826 177.057 148.664C177.057 150.502 178.881 151.993 181.132 151.993Z" fill="white" stroke="#8391A0" stroke-width="3"/>
<path d="M276.226 165.676H173.887C170.886 165.676 168.453 167.662 168.453 170.113V184.906C168.453 187.357 170.886 189.343 173.887 189.343H276.226C279.228 189.343 281.66 187.357 281.66 184.906V170.113C281.66 167.662 279.228 165.676 276.226 165.676Z" fill="#EFF0F1"/>
<path d="M194.717 174.551H277.132" stroke="#D3D6DA" stroke-width="2" stroke-linecap="round"/>
<path d="M194.717 179.728H240.906" stroke="#D3D6DA" stroke-width="2" stroke-linecap="round"/>
<path d="M181.132 180.098C183.383 180.098 185.208 178.608 185.208 176.77C185.208 174.932 183.383 173.441 181.132 173.441C178.881 173.441 177.057 174.932 177.057 176.77C177.057 178.608 178.881 180.098 181.132 180.098Z" fill="white" stroke="#8391A0" stroke-width="3"/>
<path d="M277.132 45.6716H48.9057C46.7799 45.6716 45.0566 47.079 45.0566 48.815V95.4113C45.0566 97.1473 46.7799 98.5546 48.9057 98.5546H277.132C279.258 98.5546 280.981 97.1473 280.981 95.4113V48.815C280.981 47.079 279.258 45.6716 277.132 45.6716Z" stroke="#D3D6DA" stroke-width="1.5"/>
</g>
</g>
<defs>
<filter id="filter0_d_0_353" x="-1.3585" y="5.58496" width="336.906" height="214.415" filterUnits="userSpaceOnUse" color-interpolation-filters="sRGB">
<feFlood flood-opacity="0" result="BackgroundImageFix"/>
<feColorMatrix in="SourceAlpha" type="matrix" values="0 0 0 0 0 0 0 0 0 0 0 0 0 0 0 0 0 0 127 0" result="hardAlpha"/>
<feOffset/>
<feGaussianBlur stdDeviation="12"/>
<feColorMatrix type="matrix" values="0 0 0 0 0.721569 0 0 0 0 0.858824 0 0 0 0 0.898039 0 0 0 0.5 0"/>
<feBlend mode="normal" in2="BackgroundImageFix" result="effect1_dropShadow_0_353"/>
<feBlend mode="normal" in="SourceGraphic" in2="effect1_dropShadow_0_353" result="shape"/>
</filter>
<clipPath id="clip0_0_353">
<rect width="336" height="196" fill="white"/>
</clipPath>
</defs>
</svg>
