<svg width="340" height="194" viewBox="0 0 340 194" fill="none" xmlns="http://www.w3.org/2000/svg">
<path d="M329.235 0H10.7652C6.80155 0 3.58839 2.54525 3.58839 5.68498V182.63C3.58839 185.77 6.80155 188.315 10.7652 188.315H329.235C333.199 188.315 336.412 185.77 336.412 182.63V5.68498C336.412 2.54525 333.199 0 329.235 0Z" fill="#E4E0F7"/>
<mask id="mask0_0_310" style="mask-type:alpha" maskUnits="userSpaceOnUse" x="3" y="0" width="334" height="189">
<path d="M336.412 0H3.58839V188.315H336.412V0Z" fill="#FFF2E6"/>
</mask>
<g mask="url(#mask0_0_310)">
<path opacity="0.5" d="M27.81 74.9706C60.7577 74.9706 87.467 53.8132 87.467 27.7142C87.467 1.61518 60.7577 -19.5422 27.81 -19.5422C-5.13763 -19.5422 -31.847 1.61518 -31.847 27.7142C-31.847 53.8132 -5.13763 74.9706 27.81 74.9706Z" stroke="#CDC6F4" stroke-width="19"/>
<path opacity="0.5" d="M323.852 148.875C356.8 148.875 383.509 127.718 383.509 101.619C383.509 75.52 356.8 54.3625 323.852 54.3625C290.905 54.3625 264.195 75.52 264.195 101.619C264.195 127.718 290.905 148.875 323.852 148.875Z" stroke="#CDC6F4" stroke-width="19"/>
<g filter="url(#filter0_d_0_310)">
<path d="M26.9129 37.6629C26.9129 32.5608 32.1343 28.4248 38.5752 28.4248H301.425C307.866 28.4248 313.087 32.5608 313.087 37.6629V188.315H26.9129V37.6629Z" fill="white"/>
</g>
<path d="M277.203 88.4724H63.6939C57.0053 88.4724 51.5831 92.7675 51.5831 98.0658V117.253C51.5831 122.551 57.0053 126.846 63.6939 126.846H277.203C283.892 126.846 289.314 122.551 289.314 117.253V98.0658C289.314 92.7675 283.892 88.4724 277.203 88.4724Z" fill="white"/>
<path d="M129.496 110.261H124.189L123.091 112.278H121.108L126.019 103.677H127.62L132.546 112.278H130.579L129.496 110.261ZM128.84 109.053L126.842 105.368L124.845 109.053H128.84ZM137.094 104.583C136.271 104.583 135.859 104.941 135.859 105.658V106.178H137.582V107.313H135.859V112.278H133.953V107.313H132.489V106.178H133.953V105.586C133.953 104.861 134.182 104.305 134.639 103.919C135.106 103.524 135.772 103.327 136.637 103.327C137.114 103.327 137.516 103.375 137.842 103.472V104.668C137.556 104.611 137.308 104.583 137.094 104.583ZM141.796 112.375C140.403 112.375 139.295 112.117 138.471 111.602L139.005 110.539C139.829 111.022 140.769 111.264 141.827 111.264C142.284 111.264 142.635 111.203 142.879 111.082C143.133 110.962 143.26 110.792 143.26 110.575C143.26 110.39 143.173 110.245 143.001 110.14C142.828 110.027 142.533 109.93 142.116 109.85L140.835 109.621C139.432 109.379 138.731 108.811 138.731 107.917C138.731 107.547 138.863 107.221 139.127 106.939C139.391 106.649 139.762 106.424 140.241 106.262C140.718 106.101 141.272 106.021 141.903 106.021C142.452 106.021 142.98 106.089 143.489 106.226C143.997 106.355 144.444 106.544 144.831 106.794L144.267 107.821C143.493 107.369 142.7 107.144 141.888 107.144C141.45 107.144 141.11 107.209 140.866 107.337C140.622 107.466 140.5 107.644 140.5 107.869C140.5 108.046 140.571 108.187 140.713 108.292C140.866 108.396 141.12 108.485 141.476 108.558L142.787 108.787C143.55 108.924 144.103 109.137 144.45 109.427C144.805 109.709 144.984 110.08 144.984 110.539C144.984 111.102 144.698 111.549 144.129 111.88C143.56 112.21 142.782 112.375 141.796 112.375ZM153.981 106.178V112.278H152.105V111.3C151.871 111.638 151.536 111.904 151.098 112.097C150.661 112.283 150.163 112.375 149.604 112.375C148.933 112.375 148.338 112.246 147.819 111.988C147.301 111.73 146.9 111.365 146.614 110.889C146.33 110.414 146.187 109.862 146.187 109.234C146.187 108.606 146.33 108.05 146.614 107.567C146.91 107.076 147.316 106.697 147.834 106.431C148.353 106.158 148.943 106.021 149.604 106.021C150.163 106.021 150.661 106.117 151.098 106.311C151.536 106.496 151.871 106.758 152.105 107.096V106.178H153.981ZM150.122 111.191C150.753 111.191 151.241 111.018 151.586 110.672C151.932 110.326 152.105 109.838 152.105 109.21C152.105 108.565 151.932 108.07 151.586 107.724C151.241 107.378 150.747 107.205 150.107 107.205C149.477 107.205 148.984 107.386 148.628 107.748C148.282 108.103 148.109 108.598 148.109 109.234C148.109 109.862 148.282 110.345 148.628 110.684C148.984 111.022 149.482 111.191 150.122 111.191ZM160.205 106.033C160.5 106.033 160.754 106.065 160.968 106.129L160.953 107.507C160.627 107.402 160.292 107.349 159.946 107.349C159.295 107.349 158.797 107.499 158.452 107.796C158.116 108.094 157.948 108.489 157.948 108.98V112.278H156.057V107.905C156.057 107.261 156.016 106.685 155.935 106.178H157.72L157.872 107.253C158.065 106.858 158.37 106.556 158.787 106.347C159.203 106.137 159.676 106.033 160.205 106.033ZM175.807 103.677V112.278H173.855V108.545H168.288V112.278H166.351V103.677H168.288V107.277H173.855V103.677H175.807ZM181.517 112.375C180.734 112.375 180.043 112.246 179.443 111.988C178.853 111.73 178.396 111.365 178.07 110.889C177.755 110.406 177.597 109.842 177.597 109.198C177.597 108.553 177.755 107.994 178.07 107.519C178.396 107.035 178.853 106.665 179.443 106.407C180.043 106.149 180.734 106.021 181.517 106.021C182.289 106.021 182.971 106.149 183.561 106.407C184.15 106.665 184.603 107.035 184.918 107.519C185.243 107.994 185.406 108.553 185.406 109.198C185.406 109.842 185.243 110.406 184.918 110.889C184.603 111.365 184.15 111.73 183.561 111.988C182.971 112.246 182.289 112.375 181.517 112.375ZM181.502 111.191C182.152 111.191 182.645 111.026 182.981 110.696C183.326 110.358 183.5 109.858 183.5 109.198C183.5 108.545 183.326 108.05 182.981 107.712C182.636 107.366 182.148 107.192 181.517 107.192C180.876 107.192 180.383 107.366 180.038 107.712C179.692 108.05 179.519 108.545 179.519 109.198C179.519 109.858 179.687 110.358 180.022 110.696C180.368 111.026 180.861 111.191 181.502 111.191ZM189.872 112.375C188.478 112.375 187.37 112.117 186.547 111.602L187.081 110.539C187.904 111.022 188.844 111.264 189.902 111.264C190.36 111.264 190.71 111.203 190.954 111.082C191.208 110.962 191.336 110.792 191.336 110.575C191.336 110.39 191.249 110.245 191.076 110.14C190.903 110.027 190.608 109.93 190.192 109.85L188.911 109.621C187.508 109.379 186.806 108.811 186.806 107.917C186.806 107.547 186.938 107.221 187.203 106.939C187.466 106.649 187.838 106.424 188.316 106.262C188.793 106.101 189.348 106.021 189.978 106.021C190.527 106.021 191.056 106.089 191.564 106.226C192.072 106.355 192.52 106.544 192.906 106.794L192.342 107.821C191.569 107.369 190.776 107.144 189.963 107.144C189.525 107.144 189.185 107.209 188.941 107.337C188.697 107.466 188.575 107.644 188.575 107.869C188.575 108.046 188.646 108.187 188.789 108.292C188.941 108.396 189.195 108.485 189.551 108.558L190.863 108.787C191.625 108.924 192.179 109.137 192.525 109.427C192.88 109.709 193.059 110.08 193.059 110.539C193.059 111.102 192.774 111.549 192.205 111.88C191.635 112.21 190.857 112.375 189.872 112.375ZM197.511 112.375C196.119 112.375 195.01 112.117 194.187 111.602L194.72 110.539C195.544 111.022 196.485 111.264 197.542 111.264C197.999 111.264 198.35 111.203 198.594 111.082C198.849 110.962 198.975 110.792 198.975 110.575C198.975 110.39 198.889 110.245 198.716 110.14C198.544 110.027 198.249 109.93 197.832 109.85L196.55 109.621C195.147 109.379 194.446 108.811 194.446 107.917C194.446 107.547 194.579 107.221 194.842 106.939C195.107 106.649 195.478 106.424 195.956 106.262C196.434 106.101 196.988 106.021 197.618 106.021C198.167 106.021 198.696 106.089 199.204 106.226C199.713 106.355 200.16 106.544 200.546 106.794L199.982 107.821C199.209 107.369 198.416 107.144 197.603 107.144C197.166 107.144 196.825 107.209 196.581 107.337C196.337 107.466 196.215 107.644 196.215 107.869C196.215 108.046 196.287 108.187 196.428 108.292C196.581 108.396 196.836 108.485 197.191 108.558L198.503 108.787C199.265 108.924 199.82 109.137 200.165 109.427C200.521 109.709 200.699 110.08 200.699 110.539C200.699 111.102 200.414 111.549 199.845 111.88C199.276 112.21 198.498 112.375 197.511 112.375ZM209.071 109.307H203.764C203.804 109.959 204.008 110.442 204.374 110.756C204.75 111.063 205.304 111.215 206.036 111.215C206.88 111.215 207.663 110.998 208.385 110.563L208.934 111.602C208.568 111.836 208.115 112.025 207.577 112.17C207.047 112.307 206.509 112.375 205.96 112.375C204.699 112.375 203.708 112.093 202.986 111.529C202.264 110.966 201.903 110.193 201.903 109.21C201.903 108.59 202.06 108.038 202.376 107.555C202.691 107.072 203.133 106.697 203.703 106.431C204.272 106.158 204.918 106.021 205.64 106.021C206.697 106.021 207.531 106.294 208.141 106.842C208.761 107.381 209.071 108.127 209.071 109.077V109.307ZM205.686 107.108C205.177 107.108 204.76 107.229 204.435 107.47C204.119 107.704 203.917 108.046 203.825 108.497H207.409C207.348 108.038 207.169 107.692 206.875 107.458C206.59 107.224 206.193 107.108 205.686 107.108ZM215.093 106.021C216.933 106.021 217.853 106.858 217.853 108.533V112.278H215.947V108.606C215.947 108.123 215.83 107.772 215.596 107.555C215.363 107.33 215.001 107.217 214.513 107.217C213.934 107.217 213.466 107.366 213.11 107.664C212.755 107.954 212.576 108.34 212.576 108.823V112.278H210.685V107.905C210.685 107.261 210.645 106.685 210.563 106.178H212.347L212.485 107.18C212.749 106.81 213.106 106.524 213.552 106.323C214.01 106.122 214.524 106.021 215.093 106.021Z" fill="#1C1C50"/>
<path d="M277.203 88.4724H63.6939C57.0053 88.4724 51.5831 92.7675 51.5831 98.0658V117.253C51.5831 122.551 57.0053 126.846 63.6939 126.846H277.203C283.892 126.846 289.314 122.551 289.314 117.253V98.0658C289.314 92.7675 283.892 88.4724 277.203 88.4724Z" stroke="#BDC7D2"/>
<path d="M277.203 136.014H63.6939C57.0053 136.014 51.5831 140.309 51.5831 145.607V164.794C51.5831 170.092 57.0053 174.387 63.6939 174.387H277.203C283.892 174.387 289.314 170.092 289.314 164.794V145.607C289.314 140.309 283.892 136.014 277.203 136.014Z" fill="white"/>
<path d="M154.647 151.423H159.637C160.875 151.423 161.838 151.662 162.527 152.139C163.216 152.608 163.561 153.252 163.561 154.071C163.561 154.889 163.211 155.537 162.511 156.015C161.822 156.493 160.864 156.731 159.637 156.731H156.73V160.53H154.647V151.423ZM159.394 155.452C160.116 155.452 160.659 155.337 161.025 155.107C161.402 154.868 161.591 154.527 161.591 154.084C161.591 153.632 161.408 153.29 161.042 153.06C160.676 152.821 160.127 152.702 159.394 152.702H156.73V155.452H159.394ZM165.256 151.116H167.258V160.53H165.256V151.116ZM177.266 154.071V160.53H175.28V159.494C175.033 159.852 174.677 160.134 174.215 160.338C173.752 160.535 173.224 160.633 172.632 160.633C171.922 160.633 171.292 160.496 170.743 160.223C170.194 159.95 169.769 159.562 169.467 159.059C169.166 158.556 169.015 157.972 169.015 157.307C169.015 156.642 169.166 156.053 169.467 155.542C169.779 155.022 170.21 154.621 170.759 154.339C171.308 154.049 171.932 153.904 172.632 153.904C173.224 153.904 173.752 154.007 174.215 154.211C174.677 154.408 175.033 154.685 175.28 155.043V154.071H177.266ZM173.181 159.379C173.849 159.379 174.365 159.196 174.731 158.829C175.097 158.462 175.28 157.946 175.28 157.281C175.28 156.599 175.097 156.075 174.731 155.708C174.365 155.341 173.843 155.158 173.165 155.158C172.498 155.158 171.975 155.35 171.599 155.734C171.233 156.109 171.05 156.633 171.05 157.307C171.05 157.972 171.233 158.484 171.599 158.842C171.975 159.2 172.503 159.379 173.181 159.379ZM187.183 154.071L183.388 160.965C182.958 161.767 182.409 162.351 181.741 162.718C181.074 163.084 180.25 163.327 179.271 163.447L178.818 162.219C179.583 162.082 180.153 161.907 180.53 161.694C180.918 161.49 181.23 161.183 181.467 160.773L181.725 160.3L178.334 154.071H180.449L182.791 158.714L185.181 154.071H187.183Z" fill="url(#paint0_linear_0_310)"/>
<path d="M277.203 136.014H63.6939C57.0053 136.014 51.5831 140.309 51.5831 145.607V164.794C51.5831 170.092 57.0053 174.387 63.6939 174.387H277.203C283.892 174.387 289.314 170.092 289.314 164.794V145.607C289.314 140.309 283.892 136.014 277.203 136.014Z" stroke="url(#paint1_linear_0_310)"/>
<g opacity="0.3">
<path opacity="0.3" d="M264.812 163.957C259.757 164.938 254.724 162.431 253.517 158.53C252.279 154.526 255.442 150.538 260.368 149.583C265.293 148.627 270.456 151.108 271.663 155.01C272.901 159.014 269.867 162.976 264.812 163.957ZM260.844 151.123C256.827 151.903 254.379 155.098 255.363 158.28C256.347 161.463 260.381 163.402 264.399 162.622C268.417 161.843 270.864 158.647 269.88 155.464C268.766 152.307 264.862 150.343 260.844 151.123Z" fill="#12E1FF"/>
<path opacity="0.3" d="M265.796 167.14C258.537 168.548 251.277 165.059 249.499 159.309C247.722 153.56 252.126 147.809 259.384 146.4C266.643 144.993 273.903 148.481 275.681 154.231C277.458 159.98 273.054 165.731 265.796 167.14ZM260.018 148.454C254.186 149.585 250.565 154.314 251.994 158.934C253.422 163.555 259.392 166.423 265.224 165.291C271.057 164.16 274.678 159.431 273.25 154.811C271.66 150.113 265.851 147.322 260.018 148.454Z" fill="#12E1FF"/>
</g>
<path d="M287.854 206.681C287.854 206.681 282.736 200.831 281.033 199.779C279.329 198.726 276.698 197.053 275.555 196.328C273.959 195.327 268.126 189.835 267.783 189.32C265.38 185.709 261.573 181.717 260.625 181.027C258.965 179.82 255.894 179.397 256.051 178.42C256.208 177.443 259.986 175.691 263.245 177.316C266.591 178.923 270.871 183.552 270.871 183.552C270.871 183.552 270.194 180.772 269.469 179.02C268.744 177.268 265.025 169.4 264.234 167.734C263.53 166.051 260.647 159.403 260.416 158.356C260.184 157.31 259.395 155.352 261.586 154.709C263.602 154.099 264.74 155.698 265.639 157.416C266.538 159.135 268.8 164.373 269.913 166.487C271.005 168.531 272.907 172.602 273.768 173.309C274.63 174.015 276.037 174.107 276.037 174.107C276.037 174.107 275.856 171.74 275.797 170.659C275.736 170.161 275.553 168.086 278.089 167.666C280.451 167.281 281.693 169.515 281.693 169.515C281.693 169.515 282.325 168.883 283.407 168.818C284.576 168.737 285.353 169.169 286.04 170.2C286.254 170.595 286.746 171.592 286.746 171.592C286.746 171.592 287.399 171.029 288.416 171.05C289.541 171.123 290.249 172.223 290.7 172.791C291.064 173.375 293.916 177.844 294.513 179.475C295.109 181.107 296.247 189.839 296.824 191.11C297.4 192.382 307.685 202.761 307.685 202.761L287.832 206.612L287.854 206.681Z" fill="#FFBD95"/>
<path d="M261.673 154.692C262.67 154.353 263.404 154.647 263.899 155.061C264.374 155.405 265.204 157.791 265.049 158.186C264.896 158.58 262.574 159.394 262.057 159.203C261.343 158.978 260.512 156.883 260.428 156.316C260.237 155.698 260.501 155.065 261.673 154.692Z" fill="#FFC8A7"/>
<path d="M264.712 178.196C264.712 178.196 267.406 180.075 269.924 182.572C270.312 182.933 270.871 183.552 270.871 183.552C270.871 183.552 270.641 185.781 270.851 186.759C270.975 187.754 272.11 189.644 272.11 189.644C272.11 189.644 270.148 188.351 269.729 186.103C269.393 184.421 269.291 183.495 269.013 182.893C268.395 181.194 264.712 178.196 264.712 178.196Z" fill="#F9A983"/>
<path d="M281.888 169.55C281.888 169.55 282.772 173.601 283.287 174.374C283.823 175.217 284.447 175.75 284.881 175.667C285.488 175.549 285.255 174.793 284.676 173.813C284.01 172.851 281.888 169.55 281.888 169.55Z" fill="#F9A983"/>
<path d="M286.94 171.627C286.94 171.627 287.768 174.306 288.283 175.079C288.798 175.853 289.206 176.283 289.661 176.268C290.116 176.252 290.162 175.807 289.797 175.222C289.177 174.105 286.94 171.627 286.94 171.627Z" fill="#F9A983"/>
<path d="M273.597 173.051C273.597 173.051 274.068 173.979 274.952 174.462C275.837 174.946 276.27 174.862 276.27 174.862L276.123 174.09C276.123 174.09 275.453 174.002 274.847 173.827C274.048 173.619 273.597 173.051 273.597 173.051Z" fill="#F9A983"/>
<path d="M261.948 159.151C262.467 159.342 264.722 158.613 264.963 158.202C264.66 158.116 263.924 158.113 263.165 158.333C262.341 158.639 262.079 158.981 261.948 159.151Z" fill="#FFD3B9"/>
<path d="M285.838 199.865C283.336 198.313 279.9 197.305 276.728 195.664C273.643 194.006 269.38 190.029 268.694 188.997C266.355 185.593 262.955 182.322 261.898 181.58C259.699 180.114 261.826 179.265 259.329 180.405C259.761 180.612 260.214 180.888 260.645 181.096C261.594 181.785 265.401 185.778 267.804 189.388C268.147 189.904 273.981 195.396 275.576 196.397C276.719 197.122 279.35 198.794 281.053 199.848C282.758 200.9 287.874 206.75 287.874 206.75L291.689 206.009C290.229 203.963 287.563 200.987 285.838 199.865Z" fill="#F9A983"/>
<path d="M260.172 180.751C260.345 180.717 260.827 179.896 260.697 179.775C260.654 179.638 258.13 178.308 257.22 178.339C256.312 178.37 255.66 178.642 255.724 178.847C255.788 179.053 259.912 180.801 260.172 180.751Z" fill="#FFC8A7"/>
<path d="M294.707 179.51C294.09 177.811 291.346 173.393 290.895 172.826C290.53 172.241 289.736 171.158 288.611 171.085C287.485 171.012 286.94 171.627 286.94 171.627C286.94 171.627 286.449 170.63 286.234 170.235C285.569 169.272 284.771 168.772 283.601 168.854C282.518 168.918 281.887 169.55 281.887 169.55C281.887 169.55 281.694 169.223 281.286 168.793C279.004 173.895 278.471 179.603 280.233 185.303C282.929 194.024 290.356 200.808 299.73 204.377L307.792 202.813C307.792 202.813 297.595 192.417 296.931 191.162C296.354 189.891 295.325 181.21 294.707 179.51Z" fill="#FFC6A3"/>
<path d="M170.449 75.3261C182.835 75.3261 192.876 67.3721 192.876 57.5605C192.876 47.7488 182.835 39.7949 170.449 39.7949C158.062 39.7949 148.021 47.7488 148.021 57.5605C148.021 67.3721 158.062 75.3261 170.449 75.3261Z" fill="#8391A0"/>
<path d="M170.45 44.4246C165.519 44.4246 161.487 47.6183 161.487 51.5252C161.487 55.4322 165.519 58.6259 170.45 58.6259C175.383 58.6259 179.415 55.4322 179.415 51.5252C179.415 47.6183 175.383 44.4246 170.45 44.4246Z" fill="white"/>
<path d="M185.834 64.3002C185.6 63.8351 185.287 63.4009 184.934 62.9979C183.134 60.8893 180.354 59.494 177.223 59.1529C176.831 59.1219 176.401 59.1839 176.088 59.37C174.443 60.3312 172.486 60.8273 170.45 60.8273C168.415 60.8273 166.458 60.3312 164.814 59.37C164.501 59.1839 164.07 59.0909 163.679 59.1529C160.547 59.494 157.729 60.8893 155.968 62.9979C155.615 63.4009 155.302 63.866 155.067 64.3002C154.95 64.4862 154.989 64.7032 155.106 64.8893C155.419 65.3234 155.811 65.7576 156.163 66.1296C156.711 66.7188 157.298 67.2458 157.964 67.742C158.512 68.176 159.138 68.5792 159.764 68.9822C162.857 70.8117 166.576 71.7729 170.412 71.7729C174.248 71.7729 177.966 70.8117 181.059 68.9822C181.685 68.6102 182.311 68.176 182.859 67.742C183.486 67.2458 184.112 66.7187 184.66 66.1296C185.052 65.7265 185.404 65.3234 185.717 64.8893C185.913 64.7032 185.951 64.4861 185.834 64.3002Z" fill="white"/>
</g>
<defs>
<filter id="filter0_d_0_310" x="2.91293" y="4.4248" width="334.174" height="207.89" filterUnits="userSpaceOnUse" color-interpolation-filters="sRGB">
<feFlood flood-opacity="0" result="BackgroundImageFix"/>
<feColorMatrix in="SourceAlpha" type="matrix" values="0 0 0 0 0 0 0 0 0 0 0 0 0 0 0 0 0 0 127 0" result="hardAlpha"/>
<feOffset/>
<feGaussianBlur stdDeviation="12"/>
<feColorMatrix type="matrix" values="0 0 0 0 0.803922 0 0 0 0 0.776471 0 0 0 0 0.956863 0 0 0 0.7 0"/>
<feBlend mode="normal" in2="BackgroundImageFix" result="effect1_dropShadow_0_310"/>
<feBlend mode="normal" in="SourceGraphic" in2="effect1_dropShadow_0_310" result="shape"/>
</filter>
<linearGradient id="paint0_linear_0_310" x1="170.449" y1="147.739" x2="170.449" y2="164.083" gradientUnits="userSpaceOnUse">
<stop stop-color="#41FFFF"/>
<stop offset="1" stop-color="#12E1FF"/>
</linearGradient>
<linearGradient id="paint1_linear_0_310" x1="170.449" y1="135.658" x2="170.449" y2="174.743" gradientUnits="userSpaceOnUse">
<stop stop-color="#41FFFF"/>
<stop offset="1" stop-color="#12E1FF"/>
</linearGradient>
</defs>
</svg>
