<svg width="336" height="202" viewBox="0 0 336 202" fill="none" xmlns="http://www.w3.org/2000/svg">
<path d="M328.755 0H7.24528C3.24382 0 0 2.67966 0 5.98519V192.274C0 195.58 3.24382 198.259 7.24528 198.259H328.755C332.756 198.259 336 195.58 336 192.274V5.98519C336 2.67966 332.756 0 328.755 0Z" fill="#FFE2E1"/>
<mask id="mask0_0_426" style="mask-type:alpha" maskUnits="userSpaceOnUse" x="0" y="0" width="336" height="199">
<path d="M336 0H0V198.259H336V0Z" fill="#FFF2E6"/>
</mask>
<g mask="url(#mask0_0_426)">
<path opacity="0.7" d="M24.4528 78.9297C57.715 78.9297 84.6792 56.6551 84.6792 29.1779C84.6792 1.70069 57.715 -20.574 24.4528 -20.574C-8.80931 -20.574 -35.7736 1.70069 -35.7736 29.1779C-35.7736 56.6551 -8.80931 78.9297 24.4528 78.9297Z" stroke="#FACFD9" stroke-width="19"/>
<path opacity="0.7" d="M323.321 156.737C356.583 156.737 383.547 134.462 383.547 106.985C383.547 79.5081 356.583 57.2334 323.321 57.2334C290.059 57.2334 263.094 79.5081 263.094 106.985C263.094 134.462 290.059 156.737 323.321 156.737Z" stroke="#FACFD9" stroke-width="19"/>
<path d="M28.0755 39.652C28.0755 34.2805 33.3467 29.926 39.8491 29.926H305.208C311.71 29.926 316.981 34.2805 316.981 39.652V198.259H28.0755V39.652Z" fill="white"/>
<path d="M64.1207 124.567C63.7102 124.986 63.209 125.305 62.6173 125.524C62.0377 125.743 61.3977 125.853 60.6973 125.853C59.7555 125.853 58.9041 125.684 58.1434 125.345C57.3826 125.016 56.5132 124.427 55.5351 123.579C54.3879 123.459 53.3615 123.155 52.4558 122.666C51.5622 122.178 50.8619 121.549 50.3547 120.781C49.8596 120.003 49.6121 119.145 49.6121 118.207C49.6121 117.18 49.9079 116.257 50.4996 115.439C51.1034 114.611 51.9306 113.963 52.9811 113.494C54.0437 113.025 55.2332 112.791 56.5494 112.791C57.8656 112.791 59.049 113.025 60.0996 113.494C61.1502 113.963 61.9773 114.611 62.5811 115.439C63.1849 116.257 63.4868 117.18 63.4868 118.207C63.4868 119.425 63.0702 120.491 62.237 121.409C61.4158 122.327 60.323 122.966 58.9585 123.325C59.2603 123.584 59.5501 123.768 59.8279 123.878C60.1177 123.998 60.4257 124.058 60.7517 124.058C61.5366 124.058 62.2249 123.798 62.8166 123.28L64.1207 124.567ZM52.5826 118.207C52.5826 118.856 52.7517 119.434 53.0898 119.943C53.44 120.452 53.9169 120.851 54.5207 121.14C55.1245 121.419 55.8007 121.559 56.5494 121.559C57.2981 121.559 57.9743 121.419 58.5781 121.14C59.1819 120.851 59.6528 120.452 59.9909 119.943C60.3411 119.434 60.5162 118.856 60.5162 118.207C60.5162 117.559 60.3411 116.98 59.9909 116.472C59.6528 115.963 59.1819 115.569 58.5781 115.29C57.9743 115 57.2981 114.856 56.5494 114.856C55.8007 114.856 55.1245 115 54.5207 115.29C53.9169 115.569 53.44 115.963 53.0898 116.472C52.7517 116.98 52.5826 117.559 52.5826 118.207Z" fill="#8391A0"/>
<path d="M79.6981 115.215H284.377" stroke="#D3D6DA" stroke-width="4" stroke-linecap="round"/>
<path d="M79.6981 125.689H158.491" stroke="#D3D6DA" stroke-width="4" stroke-linecap="round"/>
<path d="M184.625 59.7451H150.469C147.897 59.7451 145.811 61.4677 145.811 63.5927V81.5483C145.811 83.673 147.897 85.396 150.469 85.396H184.625C187.197 85.396 189.283 83.673 189.283 81.5483V63.5927C189.283 61.4677 187.197 59.7451 184.625 59.7451ZM186.178 74.6045L176.407 66.5336C175.801 66.0329 174.819 66.0329 174.212 66.5336L161.337 77.1693L156.225 72.9462C155.618 72.4455 154.635 72.4455 154.029 72.9462L148.917 77.1693V63.5927C148.917 62.8843 149.611 62.3101 150.469 62.3101H184.625C185.483 62.3101 186.178 62.8843 186.178 63.5927V74.6045Z" fill="#8391A0"/>
<path d="M159.784 72.5702C162.357 72.5702 164.442 70.8476 164.442 68.7227C164.442 66.5977 162.357 64.875 159.784 64.875C157.212 64.875 155.127 66.5977 155.127 68.7227C155.127 70.8476 157.212 72.5702 159.784 72.5702Z" fill="#8391A0"/>
<path d="M153.057 138.407H50.717C47.7159 138.407 45.283 140.417 45.283 142.896V157.859C45.283 160.338 47.7159 162.348 50.717 162.348H153.057C156.058 162.348 158.491 160.338 158.491 157.859V142.896C158.491 140.417 156.058 138.407 153.057 138.407Z" fill="#EFF0F1"/>
<path d="M71.5472 147.385H153.962" stroke="#D3D6DA" stroke-width="2" stroke-linecap="round"/>
<path d="M71.5472 152.622H117.736" stroke="#D3D6DA" stroke-width="2" stroke-linecap="round"/>
<path d="M57.9623 152.996C60.2131 152.996 62.0377 151.489 62.0377 149.63C62.0377 147.77 60.2131 146.263 57.9623 146.263C55.7114 146.263 53.8868 147.77 53.8868 149.63C53.8868 151.489 55.7114 152.996 57.9623 152.996Z" fill="white" stroke="#8391A0" stroke-width="3"/>
<path d="M153.057 166.837H50.717C47.7159 166.837 45.283 168.847 45.283 171.326V186.289C45.283 188.768 47.7159 190.778 50.717 190.778H153.057C156.058 190.778 158.491 188.768 158.491 186.289V171.326C158.491 168.847 156.058 166.837 153.057 166.837Z" fill="#EFF0F1"/>
<path d="M71.5472 175.815H153.962" stroke="#D3D6DA" stroke-width="2" stroke-linecap="round"/>
<path d="M71.5472 181.052H117.736" stroke="#D3D6DA" stroke-width="2" stroke-linecap="round"/>
<path d="M57.9623 181.426C60.2131 181.426 62.0377 179.919 62.0377 178.059C62.0377 176.2 60.2131 174.693 57.9623 174.693C55.7114 174.693 53.8868 176.2 53.8868 178.059C53.8868 179.919 55.7114 181.426 57.9623 181.426Z" fill="white" stroke="#8391A0" stroke-width="3"/>
<path d="M280.755 138.407H178.415C175.414 138.407 172.981 140.417 172.981 142.896V157.859C172.981 160.338 175.414 162.348 178.415 162.348H280.755C283.756 162.348 286.189 160.338 286.189 157.859V142.896C286.189 140.417 283.756 138.407 280.755 138.407Z" fill="#EFF0F1"/>
<path d="M199.245 147.385H281.66" stroke="#1C1C50" stroke-width="2" stroke-linecap="round"/>
<path d="M199.245 152.622H245.434" stroke="#1C1C50" stroke-width="2" stroke-linecap="round"/>
<path d="M185.66 152.996C187.911 152.996 189.736 151.489 189.736 149.63C189.736 147.77 187.911 146.263 185.66 146.263C183.41 146.263 181.585 147.77 181.585 149.63C181.585 151.489 183.41 152.996 185.66 152.996Z" fill="white" stroke="#0DE0C0" stroke-width="3"/>
<path d="M280.755 166.837H178.415C175.414 166.837 172.981 168.847 172.981 171.326V186.289C172.981 188.768 175.414 190.778 178.415 190.778H280.755C283.756 190.778 286.189 188.768 286.189 186.289V171.326C286.189 168.847 283.756 166.837 280.755 166.837Z" fill="#EFF0F1"/>
<path d="M199.245 175.815H281.66" stroke="#D3D6DA" stroke-width="2" stroke-linecap="round"/>
<path d="M199.245 181.052H245.434" stroke="#D3D6DA" stroke-width="2" stroke-linecap="round"/>
<path d="M185.66 181.426C187.911 181.426 189.736 179.919 189.736 178.059C189.736 176.2 187.911 174.693 185.66 174.693C183.41 174.693 181.585 176.2 181.585 178.059C181.585 179.919 183.41 181.426 185.66 181.426Z" fill="white" stroke="#8391A0" stroke-width="3"/>
</g>
<mask id="mask1_0_426" style="mask-type:alpha" maskUnits="userSpaceOnUse" x="27" y="29" width="290" height="169">
<path d="M27.1698 38.9037C27.1698 33.5322 32.441 29.1777 38.9434 29.1777H304.302C310.805 29.1777 316.075 33.5322 316.075 38.9037V197.511H27.1698V38.9037Z" fill="#DE7878"/>
</mask>
<g mask="url(#mask1_0_426)">
<g opacity="0.3">
<path opacity="0.3" d="M274.092 156.872C268.988 157.905 263.907 155.267 262.69 151.16C261.44 146.944 264.633 142.746 269.605 141.74C274.577 140.734 279.79 143.346 281.008 147.453C282.257 151.669 279.195 155.84 274.092 156.872ZM270.086 143.362C266.03 144.182 263.56 147.546 264.553 150.897C265.546 154.248 269.619 156.288 273.675 155.467C277.732 154.647 280.201 151.283 279.208 147.932C278.084 144.607 274.142 142.541 270.086 143.362Z" fill="#12E1FF"/>
<path opacity="0.3" d="M275.085 160.223C267.758 161.706 260.427 158.033 258.633 151.98C256.838 145.927 261.285 139.872 268.612 138.389C275.939 136.907 283.27 140.579 285.064 146.633C286.859 152.686 282.413 158.741 275.085 160.223ZM269.253 140.551C263.364 141.742 259.709 146.721 261.151 151.585C262.593 156.449 268.62 159.469 274.508 158.278C280.396 157.086 284.052 152.108 282.61 147.244C281.006 142.298 275.141 139.36 269.253 140.551Z" fill="#12E1FF"/>
</g>
<path d="M297.353 201.852C297.353 201.852 292.188 195.694 290.467 194.586C288.747 193.478 286.092 191.717 284.938 190.953C283.327 189.9 277.437 184.118 277.091 183.574C274.665 179.774 270.821 175.57 269.864 174.844C268.189 173.574 265.089 173.128 265.247 172.1C265.407 171.071 269.219 169.227 272.51 170.937C275.887 172.629 280.208 177.503 280.208 177.503C280.208 177.503 279.526 174.576 278.793 172.732C278.061 170.887 274.306 162.604 273.508 160.849C272.797 159.077 269.888 152.079 269.653 150.977C269.419 149.875 268.622 147.813 270.834 147.136C272.87 146.494 274.018 148.177 274.926 149.986C275.833 151.795 278.118 157.311 279.241 159.536C280.344 161.689 282.264 165.975 283.133 166.719C284.003 167.462 285.423 167.558 285.423 167.558C285.423 167.558 285.241 165.066 285.183 163.928C285.12 163.404 284.935 161.22 287.496 160.778C289.879 160.372 291.134 162.724 291.134 162.724C291.134 162.724 291.771 162.059 292.864 161.991C294.045 161.906 294.829 162.36 295.522 163.446C295.738 163.862 296.234 164.911 296.234 164.911C296.234 164.911 296.894 164.318 297.921 164.34C299.056 164.417 299.771 165.575 300.226 166.173C300.595 166.788 303.474 171.493 304.075 173.21C304.678 174.928 305.826 184.122 306.408 185.46C306.991 186.798 317.373 197.726 317.373 197.726L297.332 201.781L297.353 201.852Z" fill="#FFBD95"/>
<path d="M270.922 147.118C271.929 146.761 272.67 147.071 273.171 147.506C273.649 147.869 274.487 150.382 274.332 150.797C274.176 151.211 271.832 152.069 271.31 151.868C270.59 151.63 269.75 149.425 269.666 148.828C269.473 148.177 269.739 147.511 270.922 147.118Z" fill="#FFC8A7"/>
<path d="M273.99 171.864C273.99 171.864 276.71 173.843 279.252 176.47C279.643 176.851 280.208 177.503 280.208 177.503C280.208 177.503 279.976 179.849 280.188 180.879C280.313 181.926 281.46 183.917 281.46 183.917C281.46 183.917 279.479 182.555 279.056 180.188C278.716 178.418 278.613 177.443 278.332 176.81C277.709 175.019 273.99 171.864 273.99 171.864Z" fill="#F9A983"/>
<path d="M291.33 162.761C291.33 162.761 292.223 167.026 292.743 167.84C293.284 168.727 293.915 169.289 294.352 169.201C294.965 169.076 294.729 168.281 294.145 167.25C293.474 166.236 291.33 162.761 291.33 162.761Z" fill="#F9A983"/>
<path d="M296.431 164.948C296.431 164.948 297.267 167.768 297.787 168.582C298.306 169.396 298.718 169.85 299.178 169.833C299.637 169.817 299.683 169.348 299.315 168.733C298.689 167.557 296.431 164.948 296.431 164.948Z" fill="#F9A983"/>
<path d="M282.96 166.447C282.96 166.447 283.436 167.424 284.328 167.933C285.221 168.442 285.659 168.354 285.659 168.354L285.511 167.54C285.511 167.54 284.834 167.448 284.223 167.265C283.416 167.045 282.96 166.447 282.96 166.447Z" fill="#F9A983"/>
<path d="M271.2 151.814C271.723 152.014 274 151.247 274.244 150.815C273.938 150.723 273.195 150.721 272.429 150.952C271.597 151.273 271.332 151.633 271.2 151.814Z" fill="#FFD3B9"/>
<path d="M295.319 194.678C292.793 193.042 289.324 191.982 286.122 190.254C283.006 188.509 278.703 184.321 278.011 183.235C275.65 179.651 272.216 176.208 271.15 175.427C268.93 173.884 271.077 172.99 268.556 174.189C268.993 174.408 269.449 174.698 269.886 174.916C270.843 175.643 274.687 179.846 277.112 183.647C277.459 184.19 283.348 189.972 284.959 191.026C286.113 191.789 288.769 193.55 290.489 194.658C292.209 195.766 297.375 201.925 297.375 201.925L301.225 201.146C299.752 198.992 297.06 195.858 295.319 194.678Z" fill="#F9A983"/>
<path d="M269.407 174.553C269.583 174.518 270.068 173.653 269.938 173.527C269.895 173.382 267.346 171.982 266.428 172.014C265.51 172.046 264.852 172.333 264.917 172.55C264.981 172.767 269.144 174.607 269.407 174.553Z" fill="#FFC8A7"/>
<path d="M304.272 173.248C303.649 171.458 300.878 166.807 300.423 166.209C300.055 165.594 299.253 164.453 298.117 164.377C296.98 164.3 296.431 164.948 296.431 164.948C296.431 164.948 295.934 163.899 295.718 163.483C295.047 162.469 294.241 161.943 293.061 162.028C291.968 162.096 291.329 162.761 291.329 162.761C291.329 162.761 291.134 162.418 290.722 161.964C288.418 167.335 287.88 173.345 289.66 179.346C292.382 188.528 299.88 195.671 309.343 199.427L317.482 197.78C317.482 197.78 307.187 186.835 306.517 185.515C305.935 184.177 304.895 175.037 304.272 173.248Z" fill="#FFC6A3"/>
<path d="M281.66 45.45H53.434C51.3082 45.45 49.5849 46.8735 49.5849 48.6296V95.7629C49.5849 97.519 51.3082 98.9426 53.434 98.9426H281.66C283.786 98.9426 285.509 97.519 285.509 95.7629V48.6296C285.509 46.8735 283.786 45.45 281.66 45.45Z" stroke="#D3D6DA" stroke-width="1.5"/>
</g>
</svg>
